<?xml version="1.0" encoding="utf-8" standalone="no"?>
<!DOCTYPE svg PUBLIC "-//W3C//DTD SVG 1.1//EN"
  "http://www.w3.org/Graphics/SVG/1.1/DTD/svg11.dtd">
<svg xmlns:xlink="http://www.w3.org/1999/xlink" width="776.389987pt" height="311.065596pt" viewBox="0 0 776.389987 311.065596" xmlns="http://www.w3.org/2000/svg" version="1.1">
 <metadata>
  <rdf:RDF xmlns:dc="http://purl.org/dc/elements/1.1/" xmlns:cc="http://creativecommons.org/ns#" xmlns:rdf="http://www.w3.org/1999/02/22-rdf-syntax-ns#">
   <cc:Work>
    <dc:type rdf:resource="http://purl.org/dc/dcmitype/StillImage"/>
    <dc:date>2024-11-28T18:05:41.133678</dc:date>
    <dc:format>image/svg+xml</dc:format>
    <dc:creator>
     <cc:Agent>
      <dc:title>Matplotlib v3.8.4, https://matplotlib.org/</dc:title>
     </cc:Agent>
    </dc:creator>
   </cc:Work>
  </rdf:RDF>
 </metadata>
 <defs>
  <style type="text/css">*{stroke-linejoin: round; stroke-linecap: butt}</style>
 </defs>
 <g id="figure_1">
  <g id="patch_1">
   <path d="M 0 311.065596 
L 776.389987 311.065596 
L 776.389987 0 
L 0 0 
z
" style="fill: #ffffff"/>
  </g>
  <g id="axes_1">
   <g id="line2d_1">
    <path d="M 64.609196 44.2832 
L 764.554587 44.2832 
" clip-path="url(#pe0e5b73cf5)" style="fill: none; stroke: #000000; stroke-width: 2; stroke-linecap: square"/>
   </g>
   <g id="line2d_2">
    <path d="M 64.609196 90.637199 
L 764.554587 90.637199 
" clip-path="url(#pe0e5b73cf5)" style="fill: none; stroke: #000000; stroke-width: 2; stroke-linecap: square"/>
   </g>
   <g id="line2d_3">
    <path d="M 64.609196 136.991198 
L 764.554587 136.991198 
" clip-path="url(#pe0e5b73cf5)" style="fill: none; stroke: #000000; stroke-width: 2; stroke-linecap: square"/>
   </g>
   <g id="line2d_4">
    <path d="M 64.609196 183.345198 
L 764.554587 183.345198 
" clip-path="url(#pe0e5b73cf5)" style="fill: none; stroke: #000000; stroke-width: 2; stroke-linecap: square"/>
   </g>
   <g id="line2d_5">
    <path d="M 64.609196 229.699197 
L 764.554587 229.699197 
" clip-path="url(#pe0e5b73cf5)" style="fill: none; stroke: #000000; stroke-width: 2; stroke-linecap: square"/>
   </g>
   <g id="line2d_6">
    <path d="M 73.879996 280.688596 
L 78.515396 271.417796 
" clip-path="url(#pe0e5b73cf5)" style="fill: none; stroke: #778899; stroke-width: 1.5; stroke-linecap: square"/>
   </g>
   <g id="line2d_7">
    <path d="M 64.609196 274.546691 
L 764.554587 274.546691 
" clip-path="url(#pe0e5b73cf5)" style="fill: none; stroke: #778899; stroke-width: 2; stroke-linecap: square"/>
   </g>
   <g id="line2d_8">
    <path d="M 64.609196 277.559701 
L 764.554587 277.559701 
" clip-path="url(#pe0e5b73cf5)" style="fill: none; stroke: #778899; stroke-width: 2; stroke-linecap: square"/>
   </g>
   <g id="patch_2">
    <path d="M 361.738333 265.507662 
L 373.790372 265.507662 
L 367.764352 274.199036 
z
" clip-path="url(#pe0e5b73cf5)" style="fill: #778899"/>
   </g>
   <g id="patch_3">
    <path d="M 454.446331 265.507662 
L 466.498371 265.507662 
L 460.472351 274.199036 
z
" clip-path="url(#pe0e5b73cf5)" style="fill: #778899"/>
   </g>
   <g id="patch_4">
    <path d="M 495.237851 63.983649 
L 571.72195 63.983649 
Q 576.35735 63.983649 576.35735 59.348249 
L 576.35735 29.21815 
Q 576.35735 24.58275 571.72195 24.58275 
L 495.237851 24.58275 
Q 490.602451 24.58275 490.602451 29.21815 
L 490.602451 59.348249 
Q 490.602451 63.983649 495.237851 63.983649 
L 495.237851 63.983649 
z
" clip-path="url(#pe0e5b73cf5)" style="fill: none; stroke: #fa4d56; stroke-width: 3; stroke-linejoin: miter"/>
   </g>
   <g id="text_1">
    <g clip-path="url(#pe0e5b73cf5)">
     <!--   If -->
     <g transform="translate(491.529531 38.599587) scale(0.13 -0.13)">
      <defs>
       <path id="DejaVuSans-20" transform="scale(0.015625)"/>
       <path id="DejaVuSans-49" d="M 628 4666 
L 1259 4666 
L 1259 0 
L 628 0 
L 628 4666 
z
" transform="scale(0.015625)"/>
       <path id="DejaVuSans-66" d="M 2375 4863 
L 2375 4384 
L 1825 4384 
Q 1516 4384 1395 4259 
Q 1275 4134 1275 3809 
L 1275 3500 
L 2222 3500 
L 2222 3053 
L 1275 3053 
L 1275 0 
L 697 0 
L 697 3053 
L 147 3053 
L 147 3500 
L 697 3500 
L 697 3744 
Q 697 4328 969 4595 
Q 1241 4863 1831 4863 
L 2375 4863 
z
" transform="scale(0.015625)"/>
      </defs>
      <use xlink:href="#DejaVuSans-20"/>
      <use xlink:href="#DejaVuSans-20" x="31.787109"/>
      <use xlink:href="#DejaVuSans-49" x="63.574219"/>
      <use xlink:href="#DejaVuSans-66" x="93.066406"/>
     </g>
    </g>
   </g>
   <g id="patch_5">
    <path d="M -587.128035 388.461645 
Q -582.492635 388.461645 -582.492635 383.826245 
Q -582.492635 349.060745 -587.128035 349.060745 
Q -668.247534 349.060745 -668.247534 353.696145 
Q -668.247534 388.461645 -663.612134 388.461645 
" clip-path="url(#pe0e5b73cf5)" style="fill: none; stroke: #fa4d56; stroke-width: 3; stroke-linejoin: miter"/>
   </g>
   <g id="text_2">
    <g clip-path="url(#pe0e5b73cf5)">
     <!--   If -->
     <g transform="translate(-667.320454 363.077583) scale(0.13 -0.13)">
      <use xlink:href="#DejaVuSans-20"/>
      <use xlink:href="#DejaVuSans-20" x="31.787109"/>
      <use xlink:href="#DejaVuSans-49" x="63.574219"/>
      <use xlink:href="#DejaVuSans-66" x="93.066406"/>
     </g>
    </g>
   </g>
   <g id="patch_6">
    <path d="M 587.94585 156.691648 
L 664.429948 156.691648 
Q 669.065348 156.691648 669.065348 152.056248 
L 669.065348 121.926148 
Q 669.065348 117.290749 664.429948 117.290749 
L 587.94585 117.290749 
Q 583.31045 117.290749 583.31045 121.926148 
L 583.31045 152.056248 
Q 583.31045 156.691648 587.94585 156.691648 
L 587.94585 156.691648 
z
" clip-path="url(#pe0e5b73cf5)" style="fill: none; stroke: #fa4d56; stroke-width: 3; stroke-linejoin: miter"/>
   </g>
   <g id="text_3">
    <g clip-path="url(#pe0e5b73cf5)">
     <!--   If -->
     <g transform="translate(584.23753 131.307586) scale(0.13 -0.13)">
      <use xlink:href="#DejaVuSans-20"/>
      <use xlink:href="#DejaVuSans-20" x="31.787109"/>
      <use xlink:href="#DejaVuSans-49" x="63.574219"/>
      <use xlink:href="#DejaVuSans-66" x="93.066406"/>
     </g>
    </g>
   </g>
   <g id="patch_7">
    <path d="M -494.420036 481.169644 
Q -489.784636 481.169644 -489.784636 476.534244 
Q -489.784636 441.768744 -494.420036 441.768744 
Q -575.539535 441.768744 -575.539535 446.404144 
Q -575.539535 481.169644 -570.904135 481.169644 
" clip-path="url(#pe0e5b73cf5)" style="fill: none; stroke: #fa4d56; stroke-width: 3; stroke-linejoin: miter"/>
   </g>
   <g id="text_4">
    <g clip-path="url(#pe0e5b73cf5)">
     <!--   If -->
     <g transform="translate(-574.612455 455.785582) scale(0.13 -0.13)">
      <use xlink:href="#DejaVuSans-20"/>
      <use xlink:href="#DejaVuSans-20" x="31.787109"/>
      <use xlink:href="#DejaVuSans-49" x="63.574219"/>
      <use xlink:href="#DejaVuSans-66" x="93.066406"/>
     </g>
    </g>
   </g>
   <g id="patch_8">
    <path d="M 680.653848 110.337649 
L 757.137947 110.337649 
Q 761.773347 110.337649 761.773347 105.702249 
L 761.773347 75.572149 
Q 761.773347 70.936749 757.137947 70.936749 
L 680.653848 70.936749 
Q 676.018448 70.936749 676.018448 75.572149 
L 676.018448 105.702249 
Q 676.018448 110.337649 680.653848 110.337649 
L 680.653848 110.337649 
z
" clip-path="url(#pe0e5b73cf5)" style="fill: none; stroke: #fa4d56; stroke-width: 3; stroke-linejoin: miter"/>
   </g>
   <g id="text_5">
    <g clip-path="url(#pe0e5b73cf5)">
     <!--   If -->
     <g transform="translate(676.945528 84.953587) scale(0.13 -0.13)">
      <use xlink:href="#DejaVuSans-20"/>
      <use xlink:href="#DejaVuSans-20" x="31.787109"/>
      <use xlink:href="#DejaVuSans-49" x="63.574219"/>
      <use xlink:href="#DejaVuSans-66" x="93.066406"/>
     </g>
    </g>
   </g>
   <g id="patch_9">
    <path d="M -401.712037 434.815644 
Q -397.076637 434.815644 -397.076637 430.180244 
Q -397.076637 395.414745 -401.712037 395.414745 
Q -482.831536 395.414745 -482.831536 400.050145 
Q -482.831536 434.815644 -478.196136 434.815644 
" clip-path="url(#pe0e5b73cf5)" style="fill: none; stroke: #fa4d56; stroke-width: 3; stroke-linejoin: miter"/>
   </g>
   <g id="text_6">
    <g clip-path="url(#pe0e5b73cf5)">
     <!--   If -->
     <g transform="translate(-481.904456 409.431582) scale(0.13 -0.13)">
      <use xlink:href="#DejaVuSans-20"/>
      <use xlink:href="#DejaVuSans-20" x="31.787109"/>
      <use xlink:href="#DejaVuSans-49" x="63.574219"/>
      <use xlink:href="#DejaVuSans-66" x="93.066406"/>
     </g>
    </g>
   </g>
   <g id="patch_10">
    <path d="M 59.973797 21.1062 
L -1098.876188 21.1062 
L -1098.876188 345.584196 
L 59.973797 345.584196 
z
" clip-path="url(#pe0e5b73cf5)" style="fill: #ffffff; stroke: #ffffff; stroke-width: 1.5; stroke-linejoin: miter"/>
   </g>
   <g id="line2d_9">
    <path d="M 89.640356 90.637199 
L 89.640356 44.2832 
" clip-path="url(#pe0e5b73cf5)" style="fill: none; stroke: #002d9c; stroke-width: 2; stroke-linecap: square"/>
   </g>
   <g id="line2d_10">
    <path d="M 135.994356 136.991198 
L 135.994356 44.2832 
" clip-path="url(#pe0e5b73cf5)" style="fill: none; stroke: #002d9c; stroke-width: 2; stroke-linecap: square"/>
   </g>
   <g id="line2d_11">
    <path d="M 228.702354 183.345198 
L 228.702354 44.2832 
" clip-path="url(#pe0e5b73cf5)" style="fill: none; stroke: #002d9c; stroke-width: 2; stroke-linecap: square"/>
   </g>
   <g id="line2d_12">
    <path d="M 275.056354 183.345198 
L 275.056354 90.637199 
" clip-path="url(#pe0e5b73cf5)" style="fill: none; stroke: #002d9c; stroke-width: 2; stroke-linecap: square"/>
   </g>
   <g id="line2d_13">
    <path d="M 321.410353 229.699197 
L 321.410353 90.637199 
" clip-path="url(#pe0e5b73cf5)" style="fill: none; stroke: #002d9c; stroke-width: 2; stroke-linecap: square"/>
   </g>
   <g id="line2d_14">
    <path d="M 369.270857 183.345198 
L 369.270857 265.507662 
" clip-path="url(#pe0e5b73cf5)" style="fill: none; stroke: #778899; stroke-width: 2; stroke-linecap: square"/>
   </g>
   <g id="line2d_15">
    <path d="M 366.257847 183.345198 
L 366.257847 265.507662 
" clip-path="url(#pe0e5b73cf5)" style="fill: none; stroke: #778899; stroke-width: 2; stroke-linecap: square"/>
   </g>
   <g id="line2d_16">
    <path d="M 414.118352 229.699197 
L 414.118352 136.991198 
" clip-path="url(#pe0e5b73cf5)" style="fill: none; stroke: #002d9c; stroke-width: 2; stroke-linecap: square"/>
   </g>
   <g id="line2d_17">
    <path d="M 461.978856 229.699197 
L 461.978856 265.507662 
" clip-path="url(#pe0e5b73cf5)" style="fill: none; stroke: #778899; stroke-width: 2; stroke-linecap: square"/>
   </g>
   <g id="line2d_18">
    <path d="M 458.965846 229.699197 
L 458.965846 265.507662 
" clip-path="url(#pe0e5b73cf5)" style="fill: none; stroke: #778899; stroke-width: 2; stroke-linecap: square"/>
   </g>
   <g id="line2d_19">
    <path d="M 496.744356 65.837809 
L 496.744356 276.053196 
" clip-path="url(#pe0e5b73cf5)" style="fill: none; stroke: #778899; stroke-width: 2; stroke-linecap: square"/>
   </g>
   <g id="line2d_20">
    <path d="M 493.731346 65.837809 
L 493.731346 276.053196 
" clip-path="url(#pe0e5b73cf5)" style="fill: none; stroke: #778899; stroke-width: 2; stroke-linecap: square"/>
   </g>
   <g id="line2d_21">
    <path d="M 589.452354 158.545808 
L 589.452354 276.053196 
" clip-path="url(#pe0e5b73cf5)" style="fill: none; stroke: #778899; stroke-width: 2; stroke-linecap: square"/>
   </g>
   <g id="line2d_22">
    <path d="M 586.439345 158.545808 
L 586.439345 276.053196 
" clip-path="url(#pe0e5b73cf5)" style="fill: none; stroke: #778899; stroke-width: 2; stroke-linecap: square"/>
   </g>
   <g id="line2d_23">
    <path d="M 682.160353 112.191809 
L 682.160353 276.053196 
" clip-path="url(#pe0e5b73cf5)" style="fill: none; stroke: #778899; stroke-width: 2; stroke-linecap: square"/>
   </g>
   <g id="line2d_24">
    <path d="M 679.147343 112.191809 
L 679.147343 276.053196 
" clip-path="url(#pe0e5b73cf5)" style="fill: none; stroke: #778899; stroke-width: 2; stroke-linecap: square"/>
   </g>
   <g id="patch_11">
    <path d="M 173.309325 67.460199 
L 191.387385 67.460199 
L 191.387385 21.1062 
L 173.309325 21.1062 
z
" clip-path="url(#pe0e5b73cf5)" style="fill: #a8a8a8; opacity: 0.6"/>
   </g>
   <g id="patch_12">
    <path d="M 173.309325 113.814199 
L 191.387385 113.814199 
L 191.387385 67.460199 
L 173.309325 67.460199 
z
" clip-path="url(#pe0e5b73cf5)" style="fill: #a8a8a8; opacity: 0.6"/>
   </g>
   <g id="patch_13">
    <path d="M 173.309325 160.168198 
L 191.387385 160.168198 
L 191.387385 113.814199 
L 173.309325 113.814199 
z
" clip-path="url(#pe0e5b73cf5)" style="fill: #a8a8a8; opacity: 0.6"/>
   </g>
   <g id="patch_14">
    <path d="M 173.309325 206.522197 
L 191.387385 206.522197 
L 191.387385 160.168198 
L 173.309325 160.168198 
z
" clip-path="url(#pe0e5b73cf5)" style="fill: #a8a8a8; opacity: 0.6"/>
   </g>
   <g id="patch_15">
    <path d="M 173.309325 252.876197 
L 191.387385 252.876197 
L 191.387385 206.522197 
L 173.309325 206.522197 
z
" clip-path="url(#pe0e5b73cf5)" style="fill: #a8a8a8; opacity: 0.6"/>
   </g>
   <g id="patch_16">
    <path d="M 89.640356 48.802714 
C 90.838946 48.802714 91.988605 48.32651 92.836136 47.478979 
C 93.683666 46.631448 94.159871 45.481789 94.159871 44.2832 
C 94.159871 43.08461 93.683666 41.934951 92.836136 41.08742 
C 91.988605 40.239889 90.838946 39.763685 89.640356 39.763685 
C 88.441767 39.763685 87.292107 40.239889 86.444576 41.08742 
C 85.597046 41.934951 85.120841 43.08461 85.120841 44.2832 
C 85.120841 45.481789 85.597046 46.631448 86.444576 47.478979 
C 87.292107 48.32651 88.441767 48.802714 89.640356 48.802714 
z
" clip-path="url(#pe0e5b73cf5)" style="fill: #002d9c; stroke: #002d9c; stroke-width: 1.5; stroke-linejoin: miter"/>
   </g>
   <g id="patch_17">
    <path d="M 89.640356 101.182734 
C 92.437065 101.182734 95.119604 100.07159 97.097175 98.094018 
C 99.074747 96.116447 100.185891 93.433907 100.185891 90.637199 
C 100.185891 87.84049 99.074747 85.157951 97.097175 83.18038 
C 95.119604 81.202808 92.437065 80.091664 89.640356 80.091664 
C 86.843648 80.091664 84.161108 81.202808 82.183537 83.18038 
C 80.205965 85.157951 79.094821 87.84049 79.094821 90.637199 
C 79.094821 93.433907 80.205965 96.116447 82.183537 98.094018 
C 84.161108 100.07159 86.843648 101.182734 89.640356 101.182734 
z
" clip-path="url(#pe0e5b73cf5)" style="fill: #002d9c; stroke: #002d9c; stroke-width: 2; stroke-linejoin: miter"/>
   </g>
   <g id="patch_18">
    <path d="M 135.994356 48.802714 
C 137.192945 48.802714 138.342605 48.32651 139.190135 47.478979 
C 140.037666 46.631448 140.51387 45.481789 140.51387 44.2832 
C 140.51387 43.08461 140.037666 41.934951 139.190135 41.08742 
C 138.342605 40.239889 137.192945 39.763685 135.994356 39.763685 
C 134.795766 39.763685 133.646107 40.239889 132.798576 41.08742 
C 131.951045 41.934951 131.474841 43.08461 131.474841 44.2832 
C 131.474841 45.481789 131.951045 46.631448 132.798576 47.478979 
C 133.646107 48.32651 134.795766 48.802714 135.994356 48.802714 
z
" clip-path="url(#pe0e5b73cf5)" style="fill: #002d9c; stroke: #002d9c; stroke-width: 1.5; stroke-linejoin: miter"/>
   </g>
   <g id="patch_19">
    <path d="M 135.994356 147.536733 
C 138.791064 147.536733 141.473603 146.425589 143.451175 144.448017 
C 145.428746 142.470446 146.53989 139.787907 146.53989 136.991198 
C 146.53989 134.19449 145.428746 131.511951 143.451175 129.534379 
C 141.473603 127.556807 138.791064 126.445663 135.994356 126.445663 
C 133.197647 126.445663 130.515108 127.556807 128.537536 129.534379 
C 126.559965 131.511951 125.448821 134.19449 125.448821 136.991198 
C 125.448821 139.787907 126.559965 142.470446 128.537536 144.448017 
C 130.515108 146.425589 133.197647 147.536733 135.994356 147.536733 
z
" clip-path="url(#pe0e5b73cf5)" style="fill: #002d9c; stroke: #002d9c; stroke-width: 2; stroke-linejoin: miter"/>
   </g>
   <g id="patch_20">
    <path d="M 228.702354 48.802714 
C 229.900944 48.802714 231.050603 48.32651 231.898134 47.478979 
C 232.745665 46.631448 233.221869 45.481789 233.221869 44.2832 
C 233.221869 43.08461 232.745665 41.934951 231.898134 41.08742 
C 231.050603 40.239889 229.900944 39.763685 228.702354 39.763685 
C 227.503765 39.763685 226.354105 40.239889 225.506575 41.08742 
C 224.659044 41.934951 224.182839 43.08461 224.182839 44.2832 
C 224.182839 45.481789 224.659044 46.631448 225.506575 47.478979 
C 226.354105 48.32651 227.503765 48.802714 228.702354 48.802714 
z
" clip-path="url(#pe0e5b73cf5)" style="fill: #002d9c; stroke: #002d9c; stroke-width: 1.5; stroke-linejoin: miter"/>
   </g>
   <g id="patch_21">
    <path d="M 228.702354 193.890733 
C 231.499063 193.890733 234.181602 192.779588 236.159173 190.802017 
C 238.136745 188.824445 239.247889 186.141906 239.247889 183.345198 
C 239.247889 180.548489 238.136745 177.86595 236.159173 175.888378 
C 234.181602 173.910807 231.499063 172.799663 228.702354 172.799663 
C 225.905646 172.799663 223.223107 173.910807 221.245535 175.888378 
C 219.267964 177.86595 218.156819 180.548489 218.156819 183.345198 
C 218.156819 186.141906 219.267964 188.824445 221.245535 190.802017 
C 223.223107 192.779588 225.905646 193.890733 228.702354 193.890733 
z
" clip-path="url(#pe0e5b73cf5)" style="fill: #002d9c; stroke: #002d9c; stroke-width: 2; stroke-linejoin: miter"/>
   </g>
   <g id="patch_22">
    <path d="M 275.056354 95.156714 
C 276.254943 95.156714 277.404603 94.680509 278.252133 93.832979 
C 279.099664 92.985448 279.575869 91.835788 279.575869 90.637199 
C 279.575869 89.43861 279.099664 88.28895 278.252133 87.441419 
C 277.404603 86.593889 276.254943 86.117684 275.056354 86.117684 
C 273.857764 86.117684 272.708105 86.593889 271.860574 87.441419 
C 271.013043 88.28895 270.536839 89.43861 270.536839 90.637199 
C 270.536839 91.835788 271.013043 92.985448 271.860574 93.832979 
C 272.708105 94.680509 273.857764 95.156714 275.056354 95.156714 
z
" clip-path="url(#pe0e5b73cf5)" style="fill: #002d9c; stroke: #002d9c; stroke-width: 1.5; stroke-linejoin: miter"/>
   </g>
   <g id="patch_23">
    <path d="M 275.056354 193.890733 
C 277.853062 193.890733 280.535601 192.779588 282.513173 190.802017 
C 284.490744 188.824445 285.601889 186.141906 285.601889 183.345198 
C 285.601889 180.548489 284.490744 177.86595 282.513173 175.888378 
C 280.535601 173.910807 277.853062 172.799663 275.056354 172.799663 
C 272.259645 172.799663 269.577106 173.910807 267.599534 175.888378 
C 265.621963 177.86595 264.510819 180.548489 264.510819 183.345198 
C 264.510819 186.141906 265.621963 188.824445 267.599534 190.802017 
C 269.577106 192.779588 272.259645 193.890733 275.056354 193.890733 
z
" clip-path="url(#pe0e5b73cf5)" style="fill: #002d9c; stroke: #002d9c; stroke-width: 2; stroke-linejoin: miter"/>
   </g>
   <g id="patch_24">
    <path d="M 321.410353 95.156714 
C 322.608942 95.156714 323.758602 94.680509 324.606133 93.832979 
C 325.453663 92.985448 325.929868 91.835788 325.929868 90.637199 
C 325.929868 89.43861 325.453663 88.28895 324.606133 87.441419 
C 323.758602 86.593889 322.608942 86.117684 321.410353 86.117684 
C 320.211764 86.117684 319.062104 86.593889 318.214573 87.441419 
C 317.367043 88.28895 316.890838 89.43861 316.890838 90.637199 
C 316.890838 91.835788 317.367043 92.985448 318.214573 93.832979 
C 319.062104 94.680509 320.211764 95.156714 321.410353 95.156714 
z
" clip-path="url(#pe0e5b73cf5)" style="fill: #002d9c; stroke: #002d9c; stroke-width: 1.5; stroke-linejoin: miter"/>
   </g>
   <g id="patch_25">
    <path d="M 321.410353 240.244732 
C 324.207062 240.244732 326.889601 239.133588 328.867172 237.156016 
C 330.844744 235.178445 331.955888 232.495906 331.955888 229.699197 
C 331.955888 226.902489 330.844744 224.219949 328.867172 222.242378 
C 326.889601 220.264806 324.207062 219.153662 321.410353 219.153662 
C 318.613645 219.153662 315.931105 220.264806 313.953534 222.242378 
C 311.975962 224.219949 310.864818 226.902489 310.864818 229.699197 
C 310.864818 232.495906 311.975962 235.178445 313.953534 237.156016 
C 315.931105 239.133588 318.613645 240.244732 321.410353 240.244732 
z
" clip-path="url(#pe0e5b73cf5)" style="fill: #002d9c; stroke: #002d9c; stroke-width: 2; stroke-linejoin: miter"/>
   </g>
   <g id="patch_26">
    <path d="M 352.699303 198.410247 
L 382.829402 198.410247 
L 382.829402 168.280148 
L 352.699303 168.280148 
z
" clip-path="url(#pe0e5b73cf5)" style="fill: #a8a8a8; stroke: #a8a8a8; stroke-width: 1.5; stroke-linejoin: miter"/>
   </g>
   <g id="patch_27">
    <path d="M 378.309887 187.864713 
C 378.309887 185.068936 377.198085 182.384806 375.221172 180.407893 
C 373.244259 178.43098 370.56013 177.319178 367.764352 177.319178 
C 364.968575 177.319178 362.284446 178.43098 360.307533 180.407893 
C 358.33062 182.384806 357.218818 185.068936 357.218818 187.864713 
" clip-path="url(#pe0e5b73cf5)" style="fill: none; stroke: #000000; stroke-width: 2; stroke-linejoin: miter"/>
   </g>
   <g id="line2d_25">
    <path d="M 367.764352 187.864713 
L 378.309887 177.319178 
" clip-path="url(#pe0e5b73cf5)" style="fill: none; stroke: #000000; stroke-width: 2; stroke-linecap: square"/>
   </g>
   <g id="patch_28">
    <path d="M 414.118352 141.510713 
C 415.316941 141.510713 416.466601 141.034509 417.314131 140.186978 
C 418.161662 139.339447 418.637867 138.189788 418.637867 136.991198 
C 418.637867 135.792609 418.161662 134.642949 417.314131 133.795419 
C 416.466601 132.947888 415.316941 132.471683 414.118352 132.471683 
C 412.919762 132.471683 411.770103 132.947888 410.922572 133.795419 
C 410.075041 134.642949 409.598837 135.792609 409.598837 136.991198 
C 409.598837 138.189788 410.075041 139.339447 410.922572 140.186978 
C 411.770103 141.034509 412.919762 141.510713 414.118352 141.510713 
z
" clip-path="url(#pe0e5b73cf5)" style="fill: #002d9c; stroke: #002d9c; stroke-width: 1.5; stroke-linejoin: miter"/>
   </g>
   <g id="patch_29">
    <path d="M 414.118352 240.244732 
C 416.91506 240.244732 419.597599 239.133588 421.575171 237.156016 
C 423.552743 235.178445 424.663887 232.495906 424.663887 229.699197 
C 424.663887 226.902489 423.552743 224.219949 421.575171 222.242378 
C 419.597599 220.264806 416.91506 219.153662 414.118352 219.153662 
C 411.321643 219.153662 408.639104 220.264806 406.661533 222.242378 
C 404.683961 224.219949 403.572817 226.902489 403.572817 229.699197 
C 403.572817 232.495906 404.683961 235.178445 406.661533 237.156016 
C 408.639104 239.133588 411.321643 240.244732 414.118352 240.244732 
z
" clip-path="url(#pe0e5b73cf5)" style="fill: #002d9c; stroke: #002d9c; stroke-width: 2; stroke-linejoin: miter"/>
   </g>
   <g id="patch_30">
    <path d="M 445.407301 244.764247 
L 475.537401 244.764247 
L 475.537401 214.634147 
L 445.407301 214.634147 
z
" clip-path="url(#pe0e5b73cf5)" style="fill: #a8a8a8; stroke: #a8a8a8; stroke-width: 1.5; stroke-linejoin: miter"/>
   </g>
   <g id="patch_31">
    <path d="M 471.017886 234.218712 
C 471.017886 231.422935 469.906083 228.738806 467.92917 226.761893 
C 465.952257 224.78498 463.268128 223.673177 460.472351 223.673177 
C 457.676574 223.673177 454.992445 224.78498 453.015532 226.761893 
C 451.038619 228.738806 449.926816 231.422935 449.926816 234.218712 
" clip-path="url(#pe0e5b73cf5)" style="fill: none; stroke: #000000; stroke-width: 2; stroke-linejoin: miter"/>
   </g>
   <g id="line2d_26">
    <path d="M 460.472351 234.218712 
L 471.017886 223.673177 
" clip-path="url(#pe0e5b73cf5)" style="fill: none; stroke: #000000; stroke-width: 2; stroke-linecap: square"/>
   </g>
   <g id="patch_32">
    <path d="M 495.237851 280.572711 
C 496.43644 280.572711 497.5861 280.096507 498.43363 279.248976 
C 499.281161 278.401445 499.757366 277.251786 499.757366 276.053196 
C 499.757366 274.854607 499.281161 273.704947 498.43363 272.857417 
C 497.5861 272.009886 496.43644 271.533681 495.237851 271.533681 
C 494.039261 271.533681 492.889602 272.009886 492.042071 272.857417 
C 491.19454 273.704947 490.718336 274.854607 490.718336 276.053196 
C 490.718336 277.251786 491.19454 278.401445 492.042071 279.248976 
C 492.889602 280.096507 494.039261 280.572711 495.237851 280.572711 
z
" clip-path="url(#pe0e5b73cf5)" style="stroke: #000000; stroke-width: 1.5; stroke-linejoin: miter"/>
   </g>
   <g id="patch_33">
    <path d="M 587.94585 280.572711 
C 589.144439 280.572711 590.294099 280.096507 591.141629 279.248976 
C 591.98916 278.401445 592.465364 277.251786 592.465364 276.053196 
C 592.465364 274.854607 591.98916 273.704947 591.141629 272.857417 
C 590.294099 272.009886 589.144439 271.533681 587.94585 271.533681 
C 586.74726 271.533681 585.597601 272.009886 584.75007 272.857417 
C 583.902539 273.704947 583.426335 274.854607 583.426335 276.053196 
C 583.426335 277.251786 583.902539 278.401445 584.75007 279.248976 
C 585.597601 280.096507 586.74726 280.572711 587.94585 280.572711 
z
" clip-path="url(#pe0e5b73cf5)" style="stroke: #000000; stroke-width: 1.5; stroke-linejoin: miter"/>
   </g>
   <g id="patch_34">
    <path d="M 680.653848 280.572711 
C 681.852438 280.572711 683.002097 280.096507 683.849628 279.248976 
C 684.697159 278.401445 685.173363 277.251786 685.173363 276.053196 
C 685.173363 274.854607 684.697159 273.704947 683.849628 272.857417 
C 683.002097 272.009886 681.852438 271.533681 680.653848 271.533681 
C 679.455259 271.533681 678.305599 272.009886 677.458069 272.857417 
C 676.610538 273.704947 676.134333 274.854607 676.134333 276.053196 
C 676.134333 277.251786 676.610538 278.401445 677.458069 279.248976 
C 678.305599 280.096507 679.455259 280.572711 680.653848 280.572711 
z
" clip-path="url(#pe0e5b73cf5)" style="stroke: #000000; stroke-width: 1.5; stroke-linejoin: miter"/>
   </g>
   <g id="patch_35">
    <path d="M 538.1153 59.348249 
L 568.2454 59.348249 
L 568.2454 29.21815 
L 538.1153 29.21815 
z
" clip-path="url(#pe0e5b73cf5)" style="fill: #002d9c; stroke: #002d9c; stroke-width: 1.5; stroke-linejoin: miter"/>
   </g>
   <g id="patch_36">
    <path d="M 630.823299 152.056248 
L 660.953399 152.056248 
L 660.953399 121.926148 
L 630.823299 121.926148 
z
" clip-path="url(#pe0e5b73cf5)" style="fill: #002d9c; stroke: #002d9c; stroke-width: 1.5; stroke-linejoin: miter"/>
   </g>
   <g id="patch_37">
    <path d="M 723.531298 105.702249 
L 753.661397 105.702249 
L 753.661397 75.572149 
L 723.531298 75.572149 
z
" clip-path="url(#pe0e5b73cf5)" style="fill: #002d9c; stroke: #002d9c; stroke-width: 1.5; stroke-linejoin: miter"/>
   </g>
   <g id="line2d_27">
    <path d="M 89.640356 96.663219 
L 89.640356 84.611179 
" clip-path="url(#pe0e5b73cf5)" style="fill: none; stroke: #ffffff; stroke-width: 2; stroke-linecap: square"/>
   </g>
   <g id="line2d_28">
    <path d="M 83.614336 90.637199 
L 95.666376 90.637199 
" clip-path="url(#pe0e5b73cf5)" style="fill: none; stroke: #ffffff; stroke-width: 2; stroke-linecap: square"/>
   </g>
   <g id="line2d_29">
    <path d="M 135.994356 143.017218 
L 135.994356 130.965178 
" clip-path="url(#pe0e5b73cf5)" style="fill: none; stroke: #ffffff; stroke-width: 2; stroke-linecap: square"/>
   </g>
   <g id="line2d_30">
    <path d="M 129.968336 136.991198 
L 142.020375 136.991198 
" clip-path="url(#pe0e5b73cf5)" style="fill: none; stroke: #ffffff; stroke-width: 2; stroke-linecap: square"/>
   </g>
   <g id="line2d_31">
    <path d="M 228.702354 189.371218 
L 228.702354 177.319178 
" clip-path="url(#pe0e5b73cf5)" style="fill: none; stroke: #ffffff; stroke-width: 2; stroke-linecap: square"/>
   </g>
   <g id="line2d_32">
    <path d="M 222.676334 183.345198 
L 234.728374 183.345198 
" clip-path="url(#pe0e5b73cf5)" style="fill: none; stroke: #ffffff; stroke-width: 2; stroke-linecap: square"/>
   </g>
   <g id="line2d_33">
    <path d="M 275.056354 189.371218 
L 275.056354 177.319178 
" clip-path="url(#pe0e5b73cf5)" style="fill: none; stroke: #ffffff; stroke-width: 2; stroke-linecap: square"/>
   </g>
   <g id="line2d_34">
    <path d="M 269.030334 183.345198 
L 281.082374 183.345198 
" clip-path="url(#pe0e5b73cf5)" style="fill: none; stroke: #ffffff; stroke-width: 2; stroke-linecap: square"/>
   </g>
   <g id="line2d_35">
    <path d="M 321.410353 235.725217 
L 321.410353 223.673177 
" clip-path="url(#pe0e5b73cf5)" style="fill: none; stroke: #ffffff; stroke-width: 2; stroke-linecap: square"/>
   </g>
   <g id="line2d_36">
    <path d="M 315.384333 229.699197 
L 327.436373 229.699197 
" clip-path="url(#pe0e5b73cf5)" style="fill: none; stroke: #ffffff; stroke-width: 2; stroke-linecap: square"/>
   </g>
   <g id="line2d_37">
    <path d="M 414.118352 235.725217 
L 414.118352 223.673177 
" clip-path="url(#pe0e5b73cf5)" style="fill: none; stroke: #ffffff; stroke-width: 2; stroke-linecap: square"/>
   </g>
   <g id="line2d_38">
    <path d="M 408.092332 229.699197 
L 420.144372 229.699197 
" clip-path="url(#pe0e5b73cf5)" style="fill: none; stroke: #ffffff; stroke-width: 2; stroke-linecap: square"/>
   </g>
   <g id="text_7">
    <g clip-path="url(#pe0e5b73cf5)">
     <!-- ${q}_{0}$ -->
     <g transform="translate(37.300897 48.734176) scale(0.1625 -0.1625)">
      <defs>
       <path id="DejaVuSans-Oblique-71" d="M 2669 525 
Q 2438 222 2123 65 
Q 1809 -91 1428 -91 
Q 897 -91 595 267 
Q 294 625 294 1253 
Q 294 1759 480 2231 
Q 666 2703 1013 3078 
Q 1238 3322 1530 3453 
Q 1822 3584 2144 3584 
Q 2531 3584 2781 3431 
Q 3031 3278 3144 2969 
L 3244 3494 
L 3822 3494 
L 2888 -1319 
L 2309 -1319 
L 2669 525 
z
M 891 1338 
Q 891 875 1084 633 
Q 1278 391 1644 391 
Q 2188 391 2572 911 
Q 2956 1431 2956 2175 
Q 2956 2625 2757 2864 
Q 2559 3103 2188 3103 
Q 1916 3103 1684 2976 
Q 1453 2850 1281 2606 
Q 1100 2350 995 2006 
Q 891 1663 891 1338 
z
" transform="scale(0.015625)"/>
       <path id="DejaVuSans-30" d="M 2034 4250 
Q 1547 4250 1301 3770 
Q 1056 3291 1056 2328 
Q 1056 1369 1301 889 
Q 1547 409 2034 409 
Q 2525 409 2770 889 
Q 3016 1369 3016 2328 
Q 3016 3291 2770 3770 
Q 2525 4250 2034 4250 
z
M 2034 4750 
Q 2819 4750 3233 4129 
Q 3647 3509 3647 2328 
Q 3647 1150 3233 529 
Q 2819 -91 2034 -91 
Q 1250 -91 836 529 
Q 422 1150 422 2328 
Q 422 3509 836 4129 
Q 1250 4750 2034 4750 
z
" transform="scale(0.015625)"/>
      </defs>
      <use xlink:href="#DejaVuSans-Oblique-71"/>
      <use xlink:href="#DejaVuSans-30" transform="translate(63.476562 -16.40625) scale(0.7)"/>
     </g>
    </g>
   </g>
   <g id="text_8">
    <g clip-path="url(#pe0e5b73cf5)">
     <!-- ${q}_{1}$ -->
     <g transform="translate(37.300897 95.088175) scale(0.1625 -0.1625)">
      <defs>
       <path id="DejaVuSans-31" d="M 794 531 
L 1825 531 
L 1825 4091 
L 703 3866 
L 703 4441 
L 1819 4666 
L 2450 4666 
L 2450 531 
L 3481 531 
L 3481 0 
L 794 0 
L 794 531 
z
" transform="scale(0.015625)"/>
      </defs>
      <use xlink:href="#DejaVuSans-Oblique-71"/>
      <use xlink:href="#DejaVuSans-31" transform="translate(63.476562 -16.40625) scale(0.7)"/>
     </g>
    </g>
   </g>
   <g id="text_9">
    <g clip-path="url(#pe0e5b73cf5)">
     <!-- ${q}_{2}$ -->
     <g transform="translate(37.300897 141.442175) scale(0.1625 -0.1625)">
      <defs>
       <path id="DejaVuSans-32" d="M 1228 531 
L 3431 531 
L 3431 0 
L 469 0 
L 469 531 
Q 828 903 1448 1529 
Q 2069 2156 2228 2338 
Q 2531 2678 2651 2914 
Q 2772 3150 2772 3378 
Q 2772 3750 2511 3984 
Q 2250 4219 1831 4219 
Q 1534 4219 1204 4116 
Q 875 4013 500 3803 
L 500 4441 
Q 881 4594 1212 4672 
Q 1544 4750 1819 4750 
Q 2544 4750 2975 4387 
Q 3406 4025 3406 3419 
Q 3406 3131 3298 2873 
Q 3191 2616 2906 2266 
Q 2828 2175 2409 1742 
Q 1991 1309 1228 531 
z
" transform="scale(0.015625)"/>
      </defs>
      <use xlink:href="#DejaVuSans-Oblique-71"/>
      <use xlink:href="#DejaVuSans-32" transform="translate(63.476562 -16.40625) scale(0.7)"/>
     </g>
    </g>
   </g>
   <g id="text_10">
    <g clip-path="url(#pe0e5b73cf5)">
     <!-- ${a}_{0}$ -->
     <g transform="translate(37.625897 187.829182) scale(0.1625 -0.1625)">
      <defs>
       <path id="DejaVuSans-Oblique-61" d="M 3438 1997 
L 3047 0 
L 2472 0 
L 2578 531 
Q 2325 219 2001 64 
Q 1678 -91 1281 -91 
Q 834 -91 548 182 
Q 263 456 263 884 
Q 263 1497 752 1853 
Q 1241 2209 2100 2209 
L 2900 2209 
L 2931 2363 
Q 2938 2388 2941 2417 
Q 2944 2447 2944 2509 
Q 2944 2788 2717 2942 
Q 2491 3097 2081 3097 
Q 1800 3097 1504 3025 
Q 1209 2953 897 2809 
L 997 3341 
Q 1322 3463 1633 3523 
Q 1944 3584 2234 3584 
Q 2853 3584 3176 3315 
Q 3500 3047 3500 2534 
Q 3500 2431 3484 2292 
Q 3469 2153 3438 1997 
z
M 2816 1759 
L 2241 1759 
Q 1534 1759 1195 1570 
Q 856 1381 856 984 
Q 856 709 1029 553 
Q 1203 397 1509 397 
Q 1978 397 2328 733 
Q 2678 1069 2791 1631 
L 2816 1759 
z
" transform="scale(0.015625)"/>
      </defs>
      <use xlink:href="#DejaVuSans-Oblique-61"/>
      <use xlink:href="#DejaVuSans-30" transform="translate(61.279297 -16.40625) scale(0.7)"/>
     </g>
    </g>
   </g>
   <g id="text_11">
    <g clip-path="url(#pe0e5b73cf5)">
     <!-- ${a}_{1}$ -->
     <g transform="translate(37.625897 234.183181) scale(0.1625 -0.1625)">
      <use xlink:href="#DejaVuSans-Oblique-61"/>
      <use xlink:href="#DejaVuSans-31" transform="translate(61.279297 -16.40625) scale(0.7)"/>
     </g>
    </g>
   </g>
   <g id="text_12">
    <g clip-path="url(#pe0e5b73cf5)">
     <!-- 2 -->
     <g transform="translate(69.244596 269.254921) scale(0.104 -0.104)">
      <use xlink:href="#DejaVuSans-32"/>
     </g>
    </g>
   </g>
   <g id="text_13">
    <g clip-path="url(#pe0e5b73cf5)">
     <!-- ac -->
     <g transform="translate(36.445233 280.537181) scale(0.1625 -0.1625)">
      <defs>
       <path id="DejaVuSans-61" d="M 2194 1759 
Q 1497 1759 1228 1600 
Q 959 1441 959 1056 
Q 959 750 1161 570 
Q 1363 391 1709 391 
Q 2188 391 2477 730 
Q 2766 1069 2766 1631 
L 2766 1759 
L 2194 1759 
z
M 3341 1997 
L 3341 0 
L 2766 0 
L 2766 531 
Q 2569 213 2275 61 
Q 1981 -91 1556 -91 
Q 1019 -91 701 211 
Q 384 513 384 1019 
Q 384 1609 779 1909 
Q 1175 2209 1959 2209 
L 2766 2209 
L 2766 2266 
Q 2766 2663 2505 2880 
Q 2244 3097 1772 3097 
Q 1472 3097 1187 3025 
Q 903 2953 641 2809 
L 641 3341 
Q 956 3463 1253 3523 
Q 1550 3584 1831 3584 
Q 2591 3584 2966 3190 
Q 3341 2797 3341 1997 
z
" transform="scale(0.015625)"/>
       <path id="DejaVuSans-63" d="M 3122 3366 
L 3122 2828 
Q 2878 2963 2633 3030 
Q 2388 3097 2138 3097 
Q 1578 3097 1268 2742 
Q 959 2388 959 1747 
Q 959 1106 1268 751 
Q 1578 397 2138 397 
Q 2388 397 2633 464 
Q 2878 531 3122 666 
L 3122 134 
Q 2881 22 2623 -34 
Q 2366 -91 2075 -91 
Q 1284 -91 818 406 
Q 353 903 353 1747 
Q 353 2603 823 3093 
Q 1294 3584 2113 3584 
Q 2378 3584 2631 3529 
Q 2884 3475 3122 3366 
z
" transform="scale(0.015625)"/>
      </defs>
      <use xlink:href="#DejaVuSans-61"/>
      <use xlink:href="#DejaVuSans-63" x="61.279297"/>
     </g>
    </g>
   </g>
   <g id="line2d_39">
    <path d="M 182.348355 21.1062 
L 182.348355 67.460199 
" clip-path="url(#pe0e5b73cf5)" style="fill: none; stroke-dasharray: 3.7,1.6; stroke-dashoffset: 0; stroke: #000000"/>
   </g>
   <g id="line2d_40">
    <path d="M 182.348355 67.460199 
L 182.348355 113.814199 
" clip-path="url(#pe0e5b73cf5)" style="fill: none; stroke-dasharray: 3.7,1.6; stroke-dashoffset: 0; stroke: #000000"/>
   </g>
   <g id="line2d_41">
    <path d="M 182.348355 113.814199 
L 182.348355 160.168198 
" clip-path="url(#pe0e5b73cf5)" style="fill: none; stroke-dasharray: 3.7,1.6; stroke-dashoffset: 0; stroke: #000000"/>
   </g>
   <g id="line2d_42">
    <path d="M 182.348355 160.168198 
L 182.348355 206.522197 
" clip-path="url(#pe0e5b73cf5)" style="fill: none; stroke-dasharray: 3.7,1.6; stroke-dashoffset: 0; stroke: #000000"/>
   </g>
   <g id="line2d_43">
    <path d="M 182.348355 206.522197 
L 182.348355 252.876197 
" clip-path="url(#pe0e5b73cf5)" style="fill: none; stroke-dasharray: 3.7,1.6; stroke-dashoffset: 0; stroke: #000000"/>
   </g>
   <g id="text_14">
    <g clip-path="url(#pe0e5b73cf5)">
     <!-- 0 -->
     <g transform="translate(379.352852 269.254921) scale(0.104 -0.104)">
      <use xlink:href="#DejaVuSans-30"/>
     </g>
    </g>
   </g>
   <g id="text_15">
    <g clip-path="url(#pe0e5b73cf5)">
     <!-- 1 -->
     <g transform="translate(472.060851 269.254921) scale(0.104 -0.104)">
      <use xlink:href="#DejaVuSans-31"/>
     </g>
    </g>
   </g>
   <g id="text_16">
    <g clip-path="url(#pe0e5b73cf5)">
     <!-- 0x1 -->
     <g transform="translate(487.780351 291.170976) scale(0.08 -0.08)">
      <defs>
       <path id="DejaVuSans-78" d="M 3513 3500 
L 2247 1797 
L 3578 0 
L 2900 0 
L 1881 1375 
L 863 0 
L 184 0 
L 1544 1831 
L 300 3500 
L 978 3500 
L 1906 2253 
L 2834 3500 
L 3513 3500 
z
" transform="scale(0.015625)"/>
      </defs>
      <use xlink:href="#DejaVuSans-30"/>
      <use xlink:href="#DejaVuSans-78" x="63.623047"/>
      <use xlink:href="#DejaVuSans-31" x="122.802734"/>
     </g>
    </g>
   </g>
   <g id="text_17">
    <g clip-path="url(#pe0e5b73cf5)">
     <!-- 0x2 -->
     <g transform="translate(580.48835 291.170976) scale(0.08 -0.08)">
      <use xlink:href="#DejaVuSans-30"/>
      <use xlink:href="#DejaVuSans-78" x="63.623047"/>
      <use xlink:href="#DejaVuSans-32" x="122.802734"/>
     </g>
    </g>
   </g>
   <g id="text_18">
    <g clip-path="url(#pe0e5b73cf5)">
     <!-- 0x3 -->
     <g transform="translate(673.196348 291.170976) scale(0.08 -0.08)">
      <defs>
       <path id="DejaVuSans-33" d="M 2597 2516 
Q 3050 2419 3304 2112 
Q 3559 1806 3559 1356 
Q 3559 666 3084 287 
Q 2609 -91 1734 -91 
Q 1441 -91 1130 -33 
Q 819 25 488 141 
L 488 750 
Q 750 597 1062 519 
Q 1375 441 1716 441 
Q 2309 441 2620 675 
Q 2931 909 2931 1356 
Q 2931 1769 2642 2001 
Q 2353 2234 1838 2234 
L 1294 2234 
L 1294 2753 
L 1863 2753 
Q 2328 2753 2575 2939 
Q 2822 3125 2822 3475 
Q 2822 3834 2567 4026 
Q 2313 4219 1838 4219 
Q 1578 4219 1281 4162 
Q 984 4106 628 3988 
L 628 4550 
Q 988 4650 1302 4700 
Q 1616 4750 1894 4750 
Q 2613 4750 3031 4423 
Q 3450 4097 3450 3541 
Q 3450 3153 3228 2886 
Q 3006 2619 2597 2516 
z
" transform="scale(0.015625)"/>
      </defs>
      <use xlink:href="#DejaVuSans-30"/>
      <use xlink:href="#DejaVuSans-78" x="63.623047"/>
      <use xlink:href="#DejaVuSans-33" x="122.802734"/>
     </g>
    </g>
   </g>
   <g id="text_19">
    <g clip-path="url(#pe0e5b73cf5)">
     <!-- X -->
     <g style="fill: #ffffff" transform="translate(548.72785 47.870387) scale(0.13 -0.13)">
      <defs>
       <path id="DejaVuSans-58" d="M 403 4666 
L 1081 4666 
L 2241 2931 
L 3406 4666 
L 4084 4666 
L 2584 2425 
L 4184 0 
L 3506 0 
L 2194 1984 
L 872 0 
L 191 0 
L 1856 2491 
L 403 4666 
z
" transform="scale(0.015625)"/>
      </defs>
      <use xlink:href="#DejaVuSans-58"/>
     </g>
    </g>
   </g>
   <g id="text_20">
    <g clip-path="url(#pe0e5b73cf5)">
     <!-- X -->
     <g style="fill: #ffffff" transform="translate(641.435849 140.578386) scale(0.13 -0.13)">
      <use xlink:href="#DejaVuSans-58"/>
     </g>
    </g>
   </g>
   <g id="text_21">
    <g clip-path="url(#pe0e5b73cf5)">
     <!-- X -->
     <g style="fill: #ffffff" transform="translate(734.143848 94.224386) scale(0.13 -0.13)">
      <use xlink:href="#DejaVuSans-58"/>
     </g>
    </g>
   </g>
  </g>
 </g>
 <defs>
  <clipPath id="pe0e5b73cf5">
   <rect x="7.2" y="7.2" width="761.989987" height="296.665596"/>
  </clipPath>
 </defs>
</svg>
