<?xml version="1.0" encoding="utf-8" standalone="no"?>
<!DOCTYPE svg PUBLIC "-//W3C//DTD SVG 1.1//EN"
  "http://www.w3.org/Graphics/SVG/1.1/DTD/svg11.dtd">
<svg xmlns:xlink="http://www.w3.org/1999/xlink" width="961.805985pt" height="311.065596pt" viewBox="0 0 961.805985 311.065596" xmlns="http://www.w3.org/2000/svg" version="1.1">
 <metadata>
  <rdf:RDF xmlns:dc="http://purl.org/dc/elements/1.1/" xmlns:cc="http://creativecommons.org/ns#" xmlns:rdf="http://www.w3.org/1999/02/22-rdf-syntax-ns#">
   <cc:Work>
    <dc:type rdf:resource="http://purl.org/dc/dcmitype/StillImage"/>
    <dc:date>2024-11-28T18:05:42.393474</dc:date>
    <dc:format>image/svg+xml</dc:format>
    <dc:creator>
     <cc:Agent>
      <dc:title>Matplotlib v3.8.4, https://matplotlib.org/</dc:title>
     </cc:Agent>
    </dc:creator>
   </cc:Work>
  </rdf:RDF>
 </metadata>
 <defs>
  <style type="text/css">*{stroke-linejoin: round; stroke-linecap: butt}</style>
 </defs>
 <g id="figure_1">
  <g id="patch_1">
   <path d="M 0 311.065596 
L 961.805985 311.065596 
L 961.805985 0 
L 0 0 
z
" style="fill: #ffffff"/>
  </g>
  <g id="axes_1">
   <g id="line2d_1">
    <path d="M 64.609196 44.2832 
L 949.970585 44.2832 
" clip-path="url(#p9ab361e0d5)" style="fill: none; stroke: #000000; stroke-width: 2; stroke-linecap: square"/>
   </g>
   <g id="line2d_2">
    <path d="M 64.609196 90.637199 
L 949.970585 90.637199 
" clip-path="url(#p9ab361e0d5)" style="fill: none; stroke: #000000; stroke-width: 2; stroke-linecap: square"/>
   </g>
   <g id="line2d_3">
    <path d="M 64.609196 136.991198 
L 949.970585 136.991198 
" clip-path="url(#p9ab361e0d5)" style="fill: none; stroke: #000000; stroke-width: 2; stroke-linecap: square"/>
   </g>
   <g id="line2d_4">
    <path d="M 64.609196 183.345198 
L 949.970585 183.345198 
" clip-path="url(#p9ab361e0d5)" style="fill: none; stroke: #000000; stroke-width: 2; stroke-linecap: square"/>
   </g>
   <g id="line2d_5">
    <path d="M 64.609196 229.699197 
L 949.970585 229.699197 
" clip-path="url(#p9ab361e0d5)" style="fill: none; stroke: #000000; stroke-width: 2; stroke-linecap: square"/>
   </g>
   <g id="line2d_6">
    <path d="M 73.879996 280.688596 
L 78.515396 271.417796 
" clip-path="url(#p9ab361e0d5)" style="fill: none; stroke: #778899; stroke-width: 1.5; stroke-linecap: square"/>
   </g>
   <g id="line2d_7">
    <path d="M 64.609196 274.546691 
L 949.970585 274.546691 
" clip-path="url(#p9ab361e0d5)" style="fill: none; stroke: #778899; stroke-width: 2; stroke-linecap: square"/>
   </g>
   <g id="line2d_8">
    <path d="M 64.609196 277.559701 
L 949.970585 277.559701 
" clip-path="url(#p9ab361e0d5)" style="fill: none; stroke: #778899; stroke-width: 2; stroke-linecap: square"/>
   </g>
   <g id="patch_2">
    <path d="M 547.15433 265.507662 
L 559.20637 265.507662 
L 553.18035 274.199036 
z
" clip-path="url(#p9ab361e0d5)" style="fill: #778899"/>
   </g>
   <g id="patch_3">
    <path d="M 639.862329 265.507662 
L 651.914369 265.507662 
L 645.888349 274.199036 
z
" clip-path="url(#p9ab361e0d5)" style="fill: #778899"/>
   </g>
   <g id="patch_4">
    <path d="M 680.653848 63.983649 
L 757.137947 63.983649 
Q 761.773347 63.983649 761.773347 59.348249 
L 761.773347 29.21815 
Q 761.773347 24.58275 757.137947 24.58275 
L 680.653848 24.58275 
Q 676.018448 24.58275 676.018448 29.21815 
L 676.018448 59.348249 
Q 676.018448 63.983649 680.653848 63.983649 
L 680.653848 63.983649 
z
" clip-path="url(#p9ab361e0d5)" style="fill: none; stroke: #fa4d56; stroke-width: 3; stroke-linejoin: miter"/>
   </g>
   <g id="text_1">
    <g clip-path="url(#p9ab361e0d5)">
     <!--   If -->
     <g transform="translate(676.945528 38.599587) scale(0.13 -0.13)">
      <defs>
       <path id="DejaVuSans-20" transform="scale(0.015625)"/>
       <path id="DejaVuSans-49" d="M 628 4666 
L 1259 4666 
L 1259 0 
L 628 0 
L 628 4666 
z
" transform="scale(0.015625)"/>
       <path id="DejaVuSans-66" d="M 2375 4863 
L 2375 4384 
L 1825 4384 
Q 1516 4384 1395 4259 
Q 1275 4134 1275 3809 
L 1275 3500 
L 2222 3500 
L 2222 3053 
L 1275 3053 
L 1275 0 
L 697 0 
L 697 3053 
L 147 3053 
L 147 3500 
L 697 3500 
L 697 3744 
Q 697 4328 969 4595 
Q 1241 4863 1831 4863 
L 2375 4863 
z
" transform="scale(0.015625)"/>
      </defs>
      <use xlink:href="#DejaVuSans-20"/>
      <use xlink:href="#DejaVuSans-20" x="31.787109"/>
      <use xlink:href="#DejaVuSans-49" x="63.574219"/>
      <use xlink:href="#DejaVuSans-66" x="93.066406"/>
     </g>
    </g>
   </g>
   <g id="patch_5">
    <path d="M -401.712037 388.461645 
Q -397.076637 388.461645 -397.076637 383.826245 
Q -397.076637 349.060745 -401.712037 349.060745 
Q -482.831536 349.060745 -482.831536 353.696145 
Q -482.831536 388.461645 -478.196136 388.461645 
" clip-path="url(#p9ab361e0d5)" style="fill: none; stroke: #fa4d56; stroke-width: 3; stroke-linejoin: miter"/>
   </g>
   <g id="text_2">
    <g clip-path="url(#p9ab361e0d5)">
     <!--   If -->
     <g transform="translate(-481.904456 363.077583) scale(0.13 -0.13)">
      <use xlink:href="#DejaVuSans-20"/>
      <use xlink:href="#DejaVuSans-20" x="31.787109"/>
      <use xlink:href="#DejaVuSans-49" x="63.574219"/>
      <use xlink:href="#DejaVuSans-66" x="93.066406"/>
     </g>
    </g>
   </g>
   <g id="patch_6">
    <path d="M 773.361847 156.691648 
L 849.845946 156.691648 
Q 854.481346 156.691648 854.481346 152.056248 
L 854.481346 121.926148 
Q 854.481346 117.290749 849.845946 117.290749 
L 773.361847 117.290749 
Q 768.726447 117.290749 768.726447 121.926148 
L 768.726447 152.056248 
Q 768.726447 156.691648 773.361847 156.691648 
L 773.361847 156.691648 
z
" clip-path="url(#p9ab361e0d5)" style="fill: none; stroke: #fa4d56; stroke-width: 3; stroke-linejoin: miter"/>
   </g>
   <g id="text_3">
    <g clip-path="url(#p9ab361e0d5)">
     <!--   If -->
     <g transform="translate(769.653527 131.307586) scale(0.13 -0.13)">
      <use xlink:href="#DejaVuSans-20"/>
      <use xlink:href="#DejaVuSans-20" x="31.787109"/>
      <use xlink:href="#DejaVuSans-49" x="63.574219"/>
      <use xlink:href="#DejaVuSans-66" x="93.066406"/>
     </g>
    </g>
   </g>
   <g id="patch_7">
    <path d="M -309.004039 481.169644 
Q -304.368639 481.169644 -304.368639 476.534244 
Q -304.368639 441.768744 -309.004039 441.768744 
Q -390.123537 441.768744 -390.123537 446.404144 
Q -390.123537 481.169644 -385.488138 481.169644 
" clip-path="url(#p9ab361e0d5)" style="fill: none; stroke: #fa4d56; stroke-width: 3; stroke-linejoin: miter"/>
   </g>
   <g id="text_4">
    <g clip-path="url(#p9ab361e0d5)">
     <!--   If -->
     <g transform="translate(-389.196458 455.785582) scale(0.13 -0.13)">
      <use xlink:href="#DejaVuSans-20"/>
      <use xlink:href="#DejaVuSans-20" x="31.787109"/>
      <use xlink:href="#DejaVuSans-49" x="63.574219"/>
      <use xlink:href="#DejaVuSans-66" x="93.066406"/>
     </g>
    </g>
   </g>
   <g id="patch_8">
    <path d="M 866.069846 110.337649 
L 942.553945 110.337649 
Q 947.189345 110.337649 947.189345 105.702249 
L 947.189345 75.572149 
Q 947.189345 70.936749 942.553945 70.936749 
L 866.069846 70.936749 
Q 861.434446 70.936749 861.434446 75.572149 
L 861.434446 105.702249 
Q 861.434446 110.337649 866.069846 110.337649 
L 866.069846 110.337649 
z
" clip-path="url(#p9ab361e0d5)" style="fill: none; stroke: #fa4d56; stroke-width: 3; stroke-linejoin: miter"/>
   </g>
   <g id="text_5">
    <g clip-path="url(#p9ab361e0d5)">
     <!--   If -->
     <g transform="translate(862.361526 84.953587) scale(0.13 -0.13)">
      <use xlink:href="#DejaVuSans-20"/>
      <use xlink:href="#DejaVuSans-20" x="31.787109"/>
      <use xlink:href="#DejaVuSans-49" x="63.574219"/>
      <use xlink:href="#DejaVuSans-66" x="93.066406"/>
     </g>
    </g>
   </g>
   <g id="patch_9">
    <path d="M -216.29604 434.815644 
Q -211.66064 434.815644 -211.66064 430.180244 
Q -211.66064 395.414745 -216.29604 395.414745 
Q -297.415539 395.414745 -297.415539 400.050145 
Q -297.415539 434.815644 -292.780139 434.815644 
" clip-path="url(#p9ab361e0d5)" style="fill: none; stroke: #fa4d56; stroke-width: 3; stroke-linejoin: miter"/>
   </g>
   <g id="text_6">
    <g clip-path="url(#p9ab361e0d5)">
     <!--   If -->
     <g transform="translate(-296.488459 409.431582) scale(0.13 -0.13)">
      <use xlink:href="#DejaVuSans-20"/>
      <use xlink:href="#DejaVuSans-20" x="31.787109"/>
      <use xlink:href="#DejaVuSans-49" x="63.574219"/>
      <use xlink:href="#DejaVuSans-66" x="93.066406"/>
     </g>
    </g>
   </g>
   <g id="patch_10">
    <path d="M 59.973797 21.1062 
L -1098.876188 21.1062 
L -1098.876188 345.584196 
L 59.973797 345.584196 
z
" clip-path="url(#p9ab361e0d5)" style="fill: #ffffff; stroke: #ffffff; stroke-width: 1.5; stroke-linejoin: miter"/>
   </g>
   <g id="line2d_9">
    <path d="M 89.640356 90.637199 
L 89.640356 44.2832 
" clip-path="url(#p9ab361e0d5)" style="fill: none; stroke: #002d9c; stroke-width: 2; stroke-linecap: square"/>
   </g>
   <g id="line2d_10">
    <path d="M 135.994356 136.991198 
L 135.994356 44.2832 
" clip-path="url(#p9ab361e0d5)" style="fill: none; stroke: #002d9c; stroke-width: 2; stroke-linecap: square"/>
   </g>
   <g id="line2d_11">
    <path d="M 321.410353 183.345198 
L 321.410353 44.2832 
" clip-path="url(#p9ab361e0d5)" style="fill: none; stroke: #002d9c; stroke-width: 2; stroke-linecap: square"/>
   </g>
   <g id="line2d_12">
    <path d="M 367.764352 183.345198 
L 367.764352 90.637199 
" clip-path="url(#p9ab361e0d5)" style="fill: none; stroke: #002d9c; stroke-width: 2; stroke-linecap: square"/>
   </g>
   <g id="line2d_13">
    <path d="M 414.118352 229.699197 
L 414.118352 90.637199 
" clip-path="url(#p9ab361e0d5)" style="fill: none; stroke: #002d9c; stroke-width: 2; stroke-linecap: square"/>
   </g>
   <g id="line2d_14">
    <path d="M 506.826351 229.699197 
L 506.826351 136.991198 
" clip-path="url(#p9ab361e0d5)" style="fill: none; stroke: #002d9c; stroke-width: 2; stroke-linecap: square"/>
   </g>
   <g id="line2d_15">
    <path d="M 554.686855 183.345198 
L 554.686855 265.507662 
" clip-path="url(#p9ab361e0d5)" style="fill: none; stroke: #778899; stroke-width: 2; stroke-linecap: square"/>
   </g>
   <g id="line2d_16">
    <path d="M 551.673845 183.345198 
L 551.673845 265.507662 
" clip-path="url(#p9ab361e0d5)" style="fill: none; stroke: #778899; stroke-width: 2; stroke-linecap: square"/>
   </g>
   <g id="line2d_17">
    <path d="M 647.394854 229.699197 
L 647.394854 265.507662 
" clip-path="url(#p9ab361e0d5)" style="fill: none; stroke: #778899; stroke-width: 2; stroke-linecap: square"/>
   </g>
   <g id="line2d_18">
    <path d="M 644.381844 229.699197 
L 644.381844 265.507662 
" clip-path="url(#p9ab361e0d5)" style="fill: none; stroke: #778899; stroke-width: 2; stroke-linecap: square"/>
   </g>
   <g id="line2d_19">
    <path d="M 682.160353 65.837809 
L 682.160353 276.053196 
" clip-path="url(#p9ab361e0d5)" style="fill: none; stroke: #778899; stroke-width: 2; stroke-linecap: square"/>
   </g>
   <g id="line2d_20">
    <path d="M 679.147343 65.837809 
L 679.147343 276.053196 
" clip-path="url(#p9ab361e0d5)" style="fill: none; stroke: #778899; stroke-width: 2; stroke-linecap: square"/>
   </g>
   <g id="line2d_21">
    <path d="M 774.868352 158.545808 
L 774.868352 276.053196 
" clip-path="url(#p9ab361e0d5)" style="fill: none; stroke: #778899; stroke-width: 2; stroke-linecap: square"/>
   </g>
   <g id="line2d_22">
    <path d="M 771.855342 158.545808 
L 771.855342 276.053196 
" clip-path="url(#p9ab361e0d5)" style="fill: none; stroke: #778899; stroke-width: 2; stroke-linecap: square"/>
   </g>
   <g id="line2d_23">
    <path d="M 867.576351 112.191809 
L 867.576351 276.053196 
" clip-path="url(#p9ab361e0d5)" style="fill: none; stroke: #778899; stroke-width: 2; stroke-linecap: square"/>
   </g>
   <g id="line2d_24">
    <path d="M 864.563341 112.191809 
L 864.563341 276.053196 
" clip-path="url(#p9ab361e0d5)" style="fill: none; stroke: #778899; stroke-width: 2; stroke-linecap: square"/>
   </g>
   <g id="patch_11">
    <path d="M 219.663324 67.460199 
L 237.741384 67.460199 
L 237.741384 21.1062 
L 219.663324 21.1062 
z
" clip-path="url(#p9ab361e0d5)" style="fill: #a8a8a8; opacity: 0.6"/>
   </g>
   <g id="patch_12">
    <path d="M 219.663324 113.814199 
L 237.741384 113.814199 
L 237.741384 67.460199 
L 219.663324 67.460199 
z
" clip-path="url(#p9ab361e0d5)" style="fill: #a8a8a8; opacity: 0.6"/>
   </g>
   <g id="patch_13">
    <path d="M 219.663324 160.168198 
L 237.741384 160.168198 
L 237.741384 113.814199 
L 219.663324 113.814199 
z
" clip-path="url(#p9ab361e0d5)" style="fill: #a8a8a8; opacity: 0.6"/>
   </g>
   <g id="patch_14">
    <path d="M 219.663324 206.522197 
L 237.741384 206.522197 
L 237.741384 160.168198 
L 219.663324 160.168198 
z
" clip-path="url(#p9ab361e0d5)" style="fill: #a8a8a8; opacity: 0.6"/>
   </g>
   <g id="patch_15">
    <path d="M 219.663324 252.876197 
L 237.741384 252.876197 
L 237.741384 206.522197 
L 219.663324 206.522197 
z
" clip-path="url(#p9ab361e0d5)" style="fill: #a8a8a8; opacity: 0.6"/>
   </g>
   <g id="patch_16">
    <path d="M 89.640356 48.802714 
C 90.838946 48.802714 91.988605 48.32651 92.836136 47.478979 
C 93.683666 46.631448 94.159871 45.481789 94.159871 44.2832 
C 94.159871 43.08461 93.683666 41.934951 92.836136 41.08742 
C 91.988605 40.239889 90.838946 39.763685 89.640356 39.763685 
C 88.441767 39.763685 87.292107 40.239889 86.444576 41.08742 
C 85.597046 41.934951 85.120841 43.08461 85.120841 44.2832 
C 85.120841 45.481789 85.597046 46.631448 86.444576 47.478979 
C 87.292107 48.32651 88.441767 48.802714 89.640356 48.802714 
z
" clip-path="url(#p9ab361e0d5)" style="fill: #002d9c; stroke: #002d9c; stroke-width: 1.5; stroke-linejoin: miter"/>
   </g>
   <g id="patch_17">
    <path d="M 89.640356 101.182734 
C 92.437065 101.182734 95.119604 100.07159 97.097175 98.094018 
C 99.074747 96.116447 100.185891 93.433907 100.185891 90.637199 
C 100.185891 87.84049 99.074747 85.157951 97.097175 83.18038 
C 95.119604 81.202808 92.437065 80.091664 89.640356 80.091664 
C 86.843648 80.091664 84.161108 81.202808 82.183537 83.18038 
C 80.205965 85.157951 79.094821 87.84049 79.094821 90.637199 
C 79.094821 93.433907 80.205965 96.116447 82.183537 98.094018 
C 84.161108 100.07159 86.843648 101.182734 89.640356 101.182734 
z
" clip-path="url(#p9ab361e0d5)" style="fill: #002d9c; stroke: #002d9c; stroke-width: 2; stroke-linejoin: miter"/>
   </g>
   <g id="patch_18">
    <path d="M 135.994356 48.802714 
C 137.192945 48.802714 138.342605 48.32651 139.190135 47.478979 
C 140.037666 46.631448 140.51387 45.481789 140.51387 44.2832 
C 140.51387 43.08461 140.037666 41.934951 139.190135 41.08742 
C 138.342605 40.239889 137.192945 39.763685 135.994356 39.763685 
C 134.795766 39.763685 133.646107 40.239889 132.798576 41.08742 
C 131.951045 41.934951 131.474841 43.08461 131.474841 44.2832 
C 131.474841 45.481789 131.951045 46.631448 132.798576 47.478979 
C 133.646107 48.32651 134.795766 48.802714 135.994356 48.802714 
z
" clip-path="url(#p9ab361e0d5)" style="fill: #002d9c; stroke: #002d9c; stroke-width: 1.5; stroke-linejoin: miter"/>
   </g>
   <g id="patch_19">
    <path d="M 135.994356 147.536733 
C 138.791064 147.536733 141.473603 146.425589 143.451175 144.448017 
C 145.428746 142.470446 146.53989 139.787907 146.53989 136.991198 
C 146.53989 134.19449 145.428746 131.511951 143.451175 129.534379 
C 141.473603 127.556807 138.791064 126.445663 135.994356 126.445663 
C 133.197647 126.445663 130.515108 127.556807 128.537536 129.534379 
C 126.559965 131.511951 125.448821 134.19449 125.448821 136.991198 
C 125.448821 139.787907 126.559965 142.470446 128.537536 144.448017 
C 130.515108 146.425589 133.197647 147.536733 135.994356 147.536733 
z
" clip-path="url(#p9ab361e0d5)" style="fill: #002d9c; stroke: #002d9c; stroke-width: 2; stroke-linejoin: miter"/>
   </g>
   <g id="patch_20">
    <path d="M 167.283305 105.702249 
L 197.413405 105.702249 
L 197.413405 75.572149 
L 167.283305 75.572149 
z
" clip-path="url(#p9ab361e0d5)" style="fill: #fa4d56; stroke: #fa4d56; stroke-width: 1.5; stroke-linejoin: miter"/>
   </g>
   <g id="patch_21">
    <path d="M 167.283305 59.348249 
L 197.413405 59.348249 
L 197.413405 29.21815 
L 167.283305 29.21815 
z
" clip-path="url(#p9ab361e0d5)" style="fill: #fa4d56; stroke: #fa4d56; stroke-width: 1.5; stroke-linejoin: miter"/>
   </g>
   <g id="patch_22">
    <path d="M 167.283305 152.056248 
L 197.413405 152.056248 
L 197.413405 121.926148 
L 167.283305 121.926148 
z
" clip-path="url(#p9ab361e0d5)" style="fill: #fa4d56; stroke: #fa4d56; stroke-width: 1.5; stroke-linejoin: miter"/>
   </g>
   <g id="patch_23">
    <path d="M 259.991304 198.410247 
L 290.121403 198.410247 
L 290.121403 168.280148 
L 259.991304 168.280148 
z
" clip-path="url(#p9ab361e0d5)" style="fill: #fa4d56; stroke: #fa4d56; stroke-width: 1.5; stroke-linejoin: miter"/>
   </g>
   <g id="patch_24">
    <path d="M 259.991304 244.764247 
L 290.121403 244.764247 
L 290.121403 214.634147 
L 259.991304 214.634147 
z
" clip-path="url(#p9ab361e0d5)" style="fill: #fa4d56; stroke: #fa4d56; stroke-width: 1.5; stroke-linejoin: miter"/>
   </g>
   <g id="patch_25">
    <path d="M 321.410353 187.864713 
C 322.608942 187.864713 323.758602 187.388508 324.606133 186.540977 
C 325.453663 185.693447 325.929868 184.543787 325.929868 183.345198 
C 325.929868 182.146608 325.453663 180.996949 324.606133 180.149418 
C 323.758602 179.301887 322.608942 178.825683 321.410353 178.825683 
C 320.211764 178.825683 319.062104 179.301887 318.214573 180.149418 
C 317.367043 180.996949 316.890838 182.146608 316.890838 183.345198 
C 316.890838 184.543787 317.367043 185.693447 318.214573 186.540977 
C 319.062104 187.388508 320.211764 187.864713 321.410353 187.864713 
z
" clip-path="url(#p9ab361e0d5)" style="fill: #002d9c; stroke: #002d9c; stroke-width: 1.5; stroke-linejoin: miter"/>
   </g>
   <g id="patch_26">
    <path d="M 321.410353 54.828734 
C 324.207062 54.828734 326.889601 53.71759 328.867172 51.740019 
C 330.844744 49.762447 331.955888 47.079908 331.955888 44.2832 
C 331.955888 41.486491 330.844744 38.803952 328.867172 36.82638 
C 326.889601 34.848809 324.207062 33.737665 321.410353 33.737665 
C 318.613645 33.737665 315.931105 34.848809 313.953534 36.82638 
C 311.975962 38.803952 310.864818 41.486491 310.864818 44.2832 
C 310.864818 47.079908 311.975962 49.762447 313.953534 51.740019 
C 315.931105 53.71759 318.613645 54.828734 321.410353 54.828734 
z
" clip-path="url(#p9ab361e0d5)" style="fill: #002d9c; stroke: #002d9c; stroke-width: 2; stroke-linejoin: miter"/>
   </g>
   <g id="patch_27">
    <path d="M 367.764352 187.864713 
C 368.962942 187.864713 370.112601 187.388508 370.960132 186.540977 
C 371.807663 185.693447 372.283867 184.543787 372.283867 183.345198 
C 372.283867 182.146608 371.807663 180.996949 370.960132 180.149418 
C 370.112601 179.301887 368.962942 178.825683 367.764352 178.825683 
C 366.565763 178.825683 365.416103 179.301887 364.568573 180.149418 
C 363.721042 180.996949 363.244837 182.146608 363.244837 183.345198 
C 363.244837 184.543787 363.721042 185.693447 364.568573 186.540977 
C 365.416103 187.388508 366.565763 187.864713 367.764352 187.864713 
z
" clip-path="url(#p9ab361e0d5)" style="fill: #002d9c; stroke: #002d9c; stroke-width: 1.5; stroke-linejoin: miter"/>
   </g>
   <g id="patch_28">
    <path d="M 367.764352 101.182734 
C 370.561061 101.182734 373.2436 100.07159 375.221172 98.094018 
C 377.198743 96.116447 378.309887 93.433907 378.309887 90.637199 
C 378.309887 87.84049 377.198743 85.157951 375.221172 83.18038 
C 373.2436 81.202808 370.561061 80.091664 367.764352 80.091664 
C 364.967644 80.091664 362.285105 81.202808 360.307533 83.18038 
C 358.329962 85.157951 357.218818 87.84049 357.218818 90.637199 
C 357.218818 93.433907 358.329962 96.116447 360.307533 98.094018 
C 362.285105 100.07159 364.967644 101.182734 367.764352 101.182734 
z
" clip-path="url(#p9ab361e0d5)" style="fill: #002d9c; stroke: #002d9c; stroke-width: 2; stroke-linejoin: miter"/>
   </g>
   <g id="patch_29">
    <path d="M 414.118352 234.218712 
C 415.316941 234.218712 416.466601 233.742507 417.314131 232.894977 
C 418.161662 232.047446 418.637867 230.897786 418.637867 229.699197 
C 418.637867 228.500608 418.161662 227.350948 417.314131 226.503417 
C 416.466601 225.655887 415.316941 225.179682 414.118352 225.179682 
C 412.919762 225.179682 411.770103 225.655887 410.922572 226.503417 
C 410.075041 227.350948 409.598837 228.500608 409.598837 229.699197 
C 409.598837 230.897786 410.075041 232.047446 410.922572 232.894977 
C 411.770103 233.742507 412.919762 234.218712 414.118352 234.218712 
z
" clip-path="url(#p9ab361e0d5)" style="fill: #002d9c; stroke: #002d9c; stroke-width: 1.5; stroke-linejoin: miter"/>
   </g>
   <g id="patch_30">
    <path d="M 414.118352 101.182734 
C 416.91506 101.182734 419.597599 100.07159 421.575171 98.094018 
C 423.552743 96.116447 424.663887 93.433907 424.663887 90.637199 
C 424.663887 87.84049 423.552743 85.157951 421.575171 83.18038 
C 419.597599 81.202808 416.91506 80.091664 414.118352 80.091664 
C 411.321643 80.091664 408.639104 81.202808 406.661533 83.18038 
C 404.683961 85.157951 403.572817 87.84049 403.572817 90.637199 
C 403.572817 93.433907 404.683961 96.116447 406.661533 98.094018 
C 408.639104 100.07159 411.321643 101.182734 414.118352 101.182734 
z
" clip-path="url(#p9ab361e0d5)" style="fill: #002d9c; stroke: #002d9c; stroke-width: 2; stroke-linejoin: miter"/>
   </g>
   <g id="patch_31">
    <path d="M 445.407301 198.410247 
L 475.537401 198.410247 
L 475.537401 168.280148 
L 445.407301 168.280148 
z
" clip-path="url(#p9ab361e0d5)" style="fill: #fa4d56; stroke: #fa4d56; stroke-width: 1.5; stroke-linejoin: miter"/>
   </g>
   <g id="patch_32">
    <path d="M 506.826351 234.218712 
C 508.02494 234.218712 509.1746 233.742507 510.02213 232.894977 
C 510.869661 232.047446 511.345866 230.897786 511.345866 229.699197 
C 511.345866 228.500608 510.869661 227.350948 510.02213 226.503417 
C 509.1746 225.655887 508.02494 225.179682 506.826351 225.179682 
C 505.627761 225.179682 504.478102 225.655887 503.630571 226.503417 
C 502.78304 227.350948 502.306836 228.500608 502.306836 229.699197 
C 502.306836 230.897786 502.78304 232.047446 503.630571 232.894977 
C 504.478102 233.742507 505.627761 234.218712 506.826351 234.218712 
z
" clip-path="url(#p9ab361e0d5)" style="fill: #002d9c; stroke: #002d9c; stroke-width: 1.5; stroke-linejoin: miter"/>
   </g>
   <g id="patch_33">
    <path d="M 506.826351 147.536733 
C 509.623059 147.536733 512.305598 146.425589 514.28317 144.448017 
C 516.260741 142.470446 517.371885 139.787907 517.371885 136.991198 
C 517.371885 134.19449 516.260741 131.511951 514.28317 129.534379 
C 512.305598 127.556807 509.623059 126.445663 506.826351 126.445663 
C 504.029642 126.445663 501.347103 127.556807 499.369531 129.534379 
C 497.39196 131.511951 496.280816 134.19449 496.280816 136.991198 
C 496.280816 139.787907 497.39196 142.470446 499.369531 144.448017 
C 501.347103 146.425589 504.029642 147.536733 506.826351 147.536733 
z
" clip-path="url(#p9ab361e0d5)" style="fill: #002d9c; stroke: #002d9c; stroke-width: 2; stroke-linejoin: miter"/>
   </g>
   <g id="patch_34">
    <path d="M 538.1153 198.410247 
L 568.2454 198.410247 
L 568.2454 168.280148 
L 538.1153 168.280148 
z
" clip-path="url(#p9ab361e0d5)" style="fill: #a8a8a8; stroke: #a8a8a8; stroke-width: 1.5; stroke-linejoin: miter"/>
   </g>
   <g id="patch_35">
    <path d="M 563.725885 187.864713 
C 563.725885 185.068936 562.614082 182.384806 560.637169 180.407893 
C 558.660256 178.43098 555.976127 177.319178 553.18035 177.319178 
C 550.384573 177.319178 547.700444 178.43098 545.723531 180.407893 
C 543.746618 182.384806 542.634815 185.068936 542.634815 187.864713 
" clip-path="url(#p9ab361e0d5)" style="fill: none; stroke: #000000; stroke-width: 2; stroke-linejoin: miter"/>
   </g>
   <g id="line2d_25">
    <path d="M 553.18035 187.864713 
L 563.725885 177.319178 
" clip-path="url(#p9ab361e0d5)" style="fill: none; stroke: #000000; stroke-width: 2; stroke-linecap: square"/>
   </g>
   <g id="patch_36">
    <path d="M 584.4693 244.764247 
L 614.599399 244.764247 
L 614.599399 214.634147 
L 584.4693 214.634147 
z
" clip-path="url(#p9ab361e0d5)" style="fill: #fa4d56; stroke: #fa4d56; stroke-width: 1.5; stroke-linejoin: miter"/>
   </g>
   <g id="patch_37">
    <path d="M 630.823299 244.764247 
L 660.953399 244.764247 
L 660.953399 214.634147 
L 630.823299 214.634147 
z
" clip-path="url(#p9ab361e0d5)" style="fill: #a8a8a8; stroke: #a8a8a8; stroke-width: 1.5; stroke-linejoin: miter"/>
   </g>
   <g id="patch_38">
    <path d="M 656.433884 234.218712 
C 656.433884 231.422935 655.322081 228.738806 653.345168 226.761893 
C 651.368255 224.78498 648.684126 223.673177 645.888349 223.673177 
C 643.092572 223.673177 640.408442 224.78498 638.43153 226.761893 
C 636.454617 228.738806 635.342814 231.422935 635.342814 234.218712 
" clip-path="url(#p9ab361e0d5)" style="fill: none; stroke: #000000; stroke-width: 2; stroke-linejoin: miter"/>
   </g>
   <g id="line2d_26">
    <path d="M 645.888349 234.218712 
L 656.433884 223.673177 
" clip-path="url(#p9ab361e0d5)" style="fill: none; stroke: #000000; stroke-width: 2; stroke-linecap: square"/>
   </g>
   <g id="patch_39">
    <path d="M 680.653848 280.572711 
C 681.852438 280.572711 683.002097 280.096507 683.849628 279.248976 
C 684.697159 278.401445 685.173363 277.251786 685.173363 276.053196 
C 685.173363 274.854607 684.697159 273.704947 683.849628 272.857417 
C 683.002097 272.009886 681.852438 271.533681 680.653848 271.533681 
C 679.455259 271.533681 678.305599 272.009886 677.458069 272.857417 
C 676.610538 273.704947 676.134333 274.854607 676.134333 276.053196 
C 676.134333 277.251786 676.610538 278.401445 677.458069 279.248976 
C 678.305599 280.096507 679.455259 280.572711 680.653848 280.572711 
z
" clip-path="url(#p9ab361e0d5)" style="stroke: #000000; stroke-width: 1.5; stroke-linejoin: miter"/>
   </g>
   <g id="patch_40">
    <path d="M 773.361847 280.572711 
C 774.560436 280.572711 775.710096 280.096507 776.557627 279.248976 
C 777.405157 278.401445 777.881362 277.251786 777.881362 276.053196 
C 777.881362 274.854607 777.405157 273.704947 776.557627 272.857417 
C 775.710096 272.009886 774.560436 271.533681 773.361847 271.533681 
C 772.163258 271.533681 771.013598 272.009886 770.166067 272.857417 
C 769.318537 273.704947 768.842332 274.854607 768.842332 276.053196 
C 768.842332 277.251786 769.318537 278.401445 770.166067 279.248976 
C 771.013598 280.096507 772.163258 280.572711 773.361847 280.572711 
z
" clip-path="url(#p9ab361e0d5)" style="stroke: #000000; stroke-width: 1.5; stroke-linejoin: miter"/>
   </g>
   <g id="patch_41">
    <path d="M 866.069846 280.572711 
C 867.268435 280.572711 868.418095 280.096507 869.265625 279.248976 
C 870.113156 278.401445 870.589361 277.251786 870.589361 276.053196 
C 870.589361 274.854607 870.113156 273.704947 869.265625 272.857417 
C 868.418095 272.009886 867.268435 271.533681 866.069846 271.533681 
C 864.871256 271.533681 863.721597 272.009886 862.874066 272.857417 
C 862.026535 273.704947 861.550331 274.854607 861.550331 276.053196 
C 861.550331 277.251786 862.026535 278.401445 862.874066 279.248976 
C 863.721597 280.096507 864.871256 280.572711 866.069846 280.572711 
z
" clip-path="url(#p9ab361e0d5)" style="stroke: #000000; stroke-width: 1.5; stroke-linejoin: miter"/>
   </g>
   <g id="patch_42">
    <path d="M 723.531298 59.348249 
L 753.661397 59.348249 
L 753.661397 29.21815 
L 723.531298 29.21815 
z
" clip-path="url(#p9ab361e0d5)" style="fill: #33b1ff; stroke: #33b1ff; stroke-width: 1.5; stroke-linejoin: miter"/>
   </g>
   <g id="patch_43">
    <path d="M 816.239296 152.056248 
L 846.369396 152.056248 
L 846.369396 121.926148 
L 816.239296 121.926148 
z
" clip-path="url(#p9ab361e0d5)" style="fill: #33b1ff; stroke: #33b1ff; stroke-width: 1.5; stroke-linejoin: miter"/>
   </g>
   <g id="patch_44">
    <path d="M 908.947295 105.702249 
L 939.077395 105.702249 
L 939.077395 75.572149 
L 908.947295 75.572149 
z
" clip-path="url(#p9ab361e0d5)" style="fill: #33b1ff; stroke: #33b1ff; stroke-width: 1.5; stroke-linejoin: miter"/>
   </g>
   <g id="line2d_27">
    <path d="M 89.640356 96.663219 
L 89.640356 84.611179 
" clip-path="url(#p9ab361e0d5)" style="fill: none; stroke: #ffffff; stroke-width: 2; stroke-linecap: square"/>
   </g>
   <g id="line2d_28">
    <path d="M 83.614336 90.637199 
L 95.666376 90.637199 
" clip-path="url(#p9ab361e0d5)" style="fill: none; stroke: #ffffff; stroke-width: 2; stroke-linecap: square"/>
   </g>
   <g id="line2d_29">
    <path d="M 135.994356 143.017218 
L 135.994356 130.965178 
" clip-path="url(#p9ab361e0d5)" style="fill: none; stroke: #ffffff; stroke-width: 2; stroke-linecap: square"/>
   </g>
   <g id="line2d_30">
    <path d="M 129.968336 136.991198 
L 142.020375 136.991198 
" clip-path="url(#p9ab361e0d5)" style="fill: none; stroke: #ffffff; stroke-width: 2; stroke-linecap: square"/>
   </g>
   <g id="line2d_31">
    <path d="M 321.410353 50.309219 
L 321.410353 38.25718 
" clip-path="url(#p9ab361e0d5)" style="fill: none; stroke: #ffffff; stroke-width: 2; stroke-linecap: square"/>
   </g>
   <g id="line2d_32">
    <path d="M 315.384333 44.2832 
L 327.436373 44.2832 
" clip-path="url(#p9ab361e0d5)" style="fill: none; stroke: #ffffff; stroke-width: 2; stroke-linecap: square"/>
   </g>
   <g id="line2d_33">
    <path d="M 367.764352 96.663219 
L 367.764352 84.611179 
" clip-path="url(#p9ab361e0d5)" style="fill: none; stroke: #ffffff; stroke-width: 2; stroke-linecap: square"/>
   </g>
   <g id="line2d_34">
    <path d="M 361.738333 90.637199 
L 373.790372 90.637199 
" clip-path="url(#p9ab361e0d5)" style="fill: none; stroke: #ffffff; stroke-width: 2; stroke-linecap: square"/>
   </g>
   <g id="line2d_35">
    <path d="M 414.118352 96.663219 
L 414.118352 84.611179 
" clip-path="url(#p9ab361e0d5)" style="fill: none; stroke: #ffffff; stroke-width: 2; stroke-linecap: square"/>
   </g>
   <g id="line2d_36">
    <path d="M 408.092332 90.637199 
L 420.144372 90.637199 
" clip-path="url(#p9ab361e0d5)" style="fill: none; stroke: #ffffff; stroke-width: 2; stroke-linecap: square"/>
   </g>
   <g id="line2d_37">
    <path d="M 506.826351 143.017218 
L 506.826351 130.965178 
" clip-path="url(#p9ab361e0d5)" style="fill: none; stroke: #ffffff; stroke-width: 2; stroke-linecap: square"/>
   </g>
   <g id="line2d_38">
    <path d="M 500.800331 136.991198 
L 512.852371 136.991198 
" clip-path="url(#p9ab361e0d5)" style="fill: none; stroke: #ffffff; stroke-width: 2; stroke-linecap: square"/>
   </g>
   <g id="text_7">
    <g clip-path="url(#p9ab361e0d5)">
     <!-- ${q}_{0}$ -->
     <g transform="translate(37.300897 48.734176) scale(0.1625 -0.1625)">
      <defs>
       <path id="DejaVuSans-Oblique-71" d="M 2669 525 
Q 2438 222 2123 65 
Q 1809 -91 1428 -91 
Q 897 -91 595 267 
Q 294 625 294 1253 
Q 294 1759 480 2231 
Q 666 2703 1013 3078 
Q 1238 3322 1530 3453 
Q 1822 3584 2144 3584 
Q 2531 3584 2781 3431 
Q 3031 3278 3144 2969 
L 3244 3494 
L 3822 3494 
L 2888 -1319 
L 2309 -1319 
L 2669 525 
z
M 891 1338 
Q 891 875 1084 633 
Q 1278 391 1644 391 
Q 2188 391 2572 911 
Q 2956 1431 2956 2175 
Q 2956 2625 2757 2864 
Q 2559 3103 2188 3103 
Q 1916 3103 1684 2976 
Q 1453 2850 1281 2606 
Q 1100 2350 995 2006 
Q 891 1663 891 1338 
z
" transform="scale(0.015625)"/>
       <path id="DejaVuSans-30" d="M 2034 4250 
Q 1547 4250 1301 3770 
Q 1056 3291 1056 2328 
Q 1056 1369 1301 889 
Q 1547 409 2034 409 
Q 2525 409 2770 889 
Q 3016 1369 3016 2328 
Q 3016 3291 2770 3770 
Q 2525 4250 2034 4250 
z
M 2034 4750 
Q 2819 4750 3233 4129 
Q 3647 3509 3647 2328 
Q 3647 1150 3233 529 
Q 2819 -91 2034 -91 
Q 1250 -91 836 529 
Q 422 1150 422 2328 
Q 422 3509 836 4129 
Q 1250 4750 2034 4750 
z
" transform="scale(0.015625)"/>
      </defs>
      <use xlink:href="#DejaVuSans-Oblique-71"/>
      <use xlink:href="#DejaVuSans-30" transform="translate(63.476562 -16.40625) scale(0.7)"/>
     </g>
    </g>
   </g>
   <g id="text_8">
    <g clip-path="url(#p9ab361e0d5)">
     <!-- ${q}_{1}$ -->
     <g transform="translate(37.300897 95.088175) scale(0.1625 -0.1625)">
      <defs>
       <path id="DejaVuSans-31" d="M 794 531 
L 1825 531 
L 1825 4091 
L 703 3866 
L 703 4441 
L 1819 4666 
L 2450 4666 
L 2450 531 
L 3481 531 
L 3481 0 
L 794 0 
L 794 531 
z
" transform="scale(0.015625)"/>
      </defs>
      <use xlink:href="#DejaVuSans-Oblique-71"/>
      <use xlink:href="#DejaVuSans-31" transform="translate(63.476562 -16.40625) scale(0.7)"/>
     </g>
    </g>
   </g>
   <g id="text_9">
    <g clip-path="url(#p9ab361e0d5)">
     <!-- ${q}_{2}$ -->
     <g transform="translate(37.300897 141.442175) scale(0.1625 -0.1625)">
      <defs>
       <path id="DejaVuSans-32" d="M 1228 531 
L 3431 531 
L 3431 0 
L 469 0 
L 469 531 
Q 828 903 1448 1529 
Q 2069 2156 2228 2338 
Q 2531 2678 2651 2914 
Q 2772 3150 2772 3378 
Q 2772 3750 2511 3984 
Q 2250 4219 1831 4219 
Q 1534 4219 1204 4116 
Q 875 4013 500 3803 
L 500 4441 
Q 881 4594 1212 4672 
Q 1544 4750 1819 4750 
Q 2544 4750 2975 4387 
Q 3406 4025 3406 3419 
Q 3406 3131 3298 2873 
Q 3191 2616 2906 2266 
Q 2828 2175 2409 1742 
Q 1991 1309 1228 531 
z
" transform="scale(0.015625)"/>
      </defs>
      <use xlink:href="#DejaVuSans-Oblique-71"/>
      <use xlink:href="#DejaVuSans-32" transform="translate(63.476562 -16.40625) scale(0.7)"/>
     </g>
    </g>
   </g>
   <g id="text_10">
    <g clip-path="url(#p9ab361e0d5)">
     <!-- ${a}_{0}$ -->
     <g transform="translate(37.625897 187.829182) scale(0.1625 -0.1625)">
      <defs>
       <path id="DejaVuSans-Oblique-61" d="M 3438 1997 
L 3047 0 
L 2472 0 
L 2578 531 
Q 2325 219 2001 64 
Q 1678 -91 1281 -91 
Q 834 -91 548 182 
Q 263 456 263 884 
Q 263 1497 752 1853 
Q 1241 2209 2100 2209 
L 2900 2209 
L 2931 2363 
Q 2938 2388 2941 2417 
Q 2944 2447 2944 2509 
Q 2944 2788 2717 2942 
Q 2491 3097 2081 3097 
Q 1800 3097 1504 3025 
Q 1209 2953 897 2809 
L 997 3341 
Q 1322 3463 1633 3523 
Q 1944 3584 2234 3584 
Q 2853 3584 3176 3315 
Q 3500 3047 3500 2534 
Q 3500 2431 3484 2292 
Q 3469 2153 3438 1997 
z
M 2816 1759 
L 2241 1759 
Q 1534 1759 1195 1570 
Q 856 1381 856 984 
Q 856 709 1029 553 
Q 1203 397 1509 397 
Q 1978 397 2328 733 
Q 2678 1069 2791 1631 
L 2816 1759 
z
" transform="scale(0.015625)"/>
      </defs>
      <use xlink:href="#DejaVuSans-Oblique-61"/>
      <use xlink:href="#DejaVuSans-30" transform="translate(61.279297 -16.40625) scale(0.7)"/>
     </g>
    </g>
   </g>
   <g id="text_11">
    <g clip-path="url(#p9ab361e0d5)">
     <!-- ${a}_{1}$ -->
     <g transform="translate(37.625897 234.183181) scale(0.1625 -0.1625)">
      <use xlink:href="#DejaVuSans-Oblique-61"/>
      <use xlink:href="#DejaVuSans-31" transform="translate(61.279297 -16.40625) scale(0.7)"/>
     </g>
    </g>
   </g>
   <g id="text_12">
    <g clip-path="url(#p9ab361e0d5)">
     <!-- 2 -->
     <g transform="translate(69.244596 269.254921) scale(0.104 -0.104)">
      <use xlink:href="#DejaVuSans-32"/>
     </g>
    </g>
   </g>
   <g id="text_13">
    <g clip-path="url(#p9ab361e0d5)">
     <!-- ac -->
     <g transform="translate(36.445233 280.537181) scale(0.1625 -0.1625)">
      <defs>
       <path id="DejaVuSans-61" d="M 2194 1759 
Q 1497 1759 1228 1600 
Q 959 1441 959 1056 
Q 959 750 1161 570 
Q 1363 391 1709 391 
Q 2188 391 2477 730 
Q 2766 1069 2766 1631 
L 2766 1759 
L 2194 1759 
z
M 3341 1997 
L 3341 0 
L 2766 0 
L 2766 531 
Q 2569 213 2275 61 
Q 1981 -91 1556 -91 
Q 1019 -91 701 211 
Q 384 513 384 1019 
Q 384 1609 779 1909 
Q 1175 2209 1959 2209 
L 2766 2209 
L 2766 2266 
Q 2766 2663 2505 2880 
Q 2244 3097 1772 3097 
Q 1472 3097 1187 3025 
Q 903 2953 641 2809 
L 641 3341 
Q 956 3463 1253 3523 
Q 1550 3584 1831 3584 
Q 2591 3584 2966 3190 
Q 3341 2797 3341 1997 
z
" transform="scale(0.015625)"/>
       <path id="DejaVuSans-63" d="M 3122 3366 
L 3122 2828 
Q 2878 2963 2633 3030 
Q 2388 3097 2138 3097 
Q 1578 3097 1268 2742 
Q 959 2388 959 1747 
Q 959 1106 1268 751 
Q 1578 397 2138 397 
Q 2388 397 2633 464 
Q 2878 531 3122 666 
L 3122 134 
Q 2881 22 2623 -34 
Q 2366 -91 2075 -91 
Q 1284 -91 818 406 
Q 353 903 353 1747 
Q 353 2603 823 3093 
Q 1294 3584 2113 3584 
Q 2378 3584 2631 3529 
Q 2884 3475 3122 3366 
z
" transform="scale(0.015625)"/>
      </defs>
      <use xlink:href="#DejaVuSans-61"/>
      <use xlink:href="#DejaVuSans-63" x="61.279297"/>
     </g>
    </g>
   </g>
   <g id="text_14">
    <g clip-path="url(#p9ab361e0d5)">
     <!-- H -->
     <g transform="translate(177.460152 94.224386) scale(0.13 -0.13)">
      <defs>
       <path id="DejaVuSans-48" d="M 628 4666 
L 1259 4666 
L 1259 2753 
L 3553 2753 
L 3553 4666 
L 4184 4666 
L 4184 0 
L 3553 0 
L 3553 2222 
L 1259 2222 
L 1259 0 
L 628 0 
L 628 4666 
z
" transform="scale(0.015625)"/>
      </defs>
      <use xlink:href="#DejaVuSans-48"/>
     </g>
    </g>
   </g>
   <g id="text_15">
    <g clip-path="url(#p9ab361e0d5)">
     <!-- H -->
     <g transform="translate(177.460152 47.870387) scale(0.13 -0.13)">
      <use xlink:href="#DejaVuSans-48"/>
     </g>
    </g>
   </g>
   <g id="text_16">
    <g clip-path="url(#p9ab361e0d5)">
     <!-- H -->
     <g transform="translate(177.460152 140.578386) scale(0.13 -0.13)">
      <use xlink:href="#DejaVuSans-48"/>
     </g>
    </g>
   </g>
   <g id="line2d_39">
    <path d="M 228.702354 21.1062 
L 228.702354 67.460199 
" clip-path="url(#p9ab361e0d5)" style="fill: none; stroke-dasharray: 3.7,1.6; stroke-dashoffset: 0; stroke: #000000"/>
   </g>
   <g id="line2d_40">
    <path d="M 228.702354 67.460199 
L 228.702354 113.814199 
" clip-path="url(#p9ab361e0d5)" style="fill: none; stroke-dasharray: 3.7,1.6; stroke-dashoffset: 0; stroke: #000000"/>
   </g>
   <g id="line2d_41">
    <path d="M 228.702354 113.814199 
L 228.702354 160.168198 
" clip-path="url(#p9ab361e0d5)" style="fill: none; stroke-dasharray: 3.7,1.6; stroke-dashoffset: 0; stroke: #000000"/>
   </g>
   <g id="line2d_42">
    <path d="M 228.702354 160.168198 
L 228.702354 206.522197 
" clip-path="url(#p9ab361e0d5)" style="fill: none; stroke-dasharray: 3.7,1.6; stroke-dashoffset: 0; stroke: #000000"/>
   </g>
   <g id="line2d_43">
    <path d="M 228.702354 206.522197 
L 228.702354 252.876197 
" clip-path="url(#p9ab361e0d5)" style="fill: none; stroke-dasharray: 3.7,1.6; stroke-dashoffset: 0; stroke: #000000"/>
   </g>
   <g id="text_17">
    <g clip-path="url(#p9ab361e0d5)">
     <!-- H -->
     <g transform="translate(270.168151 186.932385) scale(0.13 -0.13)">
      <use xlink:href="#DejaVuSans-48"/>
     </g>
    </g>
   </g>
   <g id="text_18">
    <g clip-path="url(#p9ab361e0d5)">
     <!-- H -->
     <g transform="translate(270.168151 233.286385) scale(0.13 -0.13)">
      <use xlink:href="#DejaVuSans-48"/>
     </g>
    </g>
   </g>
   <g id="text_19">
    <g clip-path="url(#p9ab361e0d5)">
     <!-- H -->
     <g transform="translate(455.584148 186.932385) scale(0.13 -0.13)">
      <use xlink:href="#DejaVuSans-48"/>
     </g>
    </g>
   </g>
   <g id="text_20">
    <g clip-path="url(#p9ab361e0d5)">
     <!-- 0 -->
     <g transform="translate(564.76885 269.254921) scale(0.104 -0.104)">
      <use xlink:href="#DejaVuSans-30"/>
     </g>
    </g>
   </g>
   <g id="text_21">
    <g clip-path="url(#p9ab361e0d5)">
     <!-- H -->
     <g transform="translate(594.646146 233.286385) scale(0.13 -0.13)">
      <use xlink:href="#DejaVuSans-48"/>
     </g>
    </g>
   </g>
   <g id="text_22">
    <g clip-path="url(#p9ab361e0d5)">
     <!-- 1 -->
     <g transform="translate(657.476849 269.254921) scale(0.104 -0.104)">
      <use xlink:href="#DejaVuSans-31"/>
     </g>
    </g>
   </g>
   <g id="text_23">
    <g clip-path="url(#p9ab361e0d5)">
     <!-- 0x1 -->
     <g transform="translate(673.196348 291.170976) scale(0.08 -0.08)">
      <defs>
       <path id="DejaVuSans-78" d="M 3513 3500 
L 2247 1797 
L 3578 0 
L 2900 0 
L 1881 1375 
L 863 0 
L 184 0 
L 1544 1831 
L 300 3500 
L 978 3500 
L 1906 2253 
L 2834 3500 
L 3513 3500 
z
" transform="scale(0.015625)"/>
      </defs>
      <use xlink:href="#DejaVuSans-30"/>
      <use xlink:href="#DejaVuSans-78" x="63.623047"/>
      <use xlink:href="#DejaVuSans-31" x="122.802734"/>
     </g>
    </g>
   </g>
   <g id="text_24">
    <g clip-path="url(#p9ab361e0d5)">
     <!-- 0x2 -->
     <g transform="translate(765.904347 291.170976) scale(0.08 -0.08)">
      <use xlink:href="#DejaVuSans-30"/>
      <use xlink:href="#DejaVuSans-78" x="63.623047"/>
      <use xlink:href="#DejaVuSans-32" x="122.802734"/>
     </g>
    </g>
   </g>
   <g id="text_25">
    <g clip-path="url(#p9ab361e0d5)">
     <!-- 0x3 -->
     <g transform="translate(858.612346 291.170976) scale(0.08 -0.08)">
      <defs>
       <path id="DejaVuSans-33" d="M 2597 2516 
Q 3050 2419 3304 2112 
Q 3559 1806 3559 1356 
Q 3559 666 3084 287 
Q 2609 -91 1734 -91 
Q 1441 -91 1130 -33 
Q 819 25 488 141 
L 488 750 
Q 750 597 1062 519 
Q 1375 441 1716 441 
Q 2309 441 2620 675 
Q 2931 909 2931 1356 
Q 2931 1769 2642 2001 
Q 2353 2234 1838 2234 
L 1294 2234 
L 1294 2753 
L 1863 2753 
Q 2328 2753 2575 2939 
Q 2822 3125 2822 3475 
Q 2822 3834 2567 4026 
Q 2313 4219 1838 4219 
Q 1578 4219 1281 4162 
Q 984 4106 628 3988 
L 628 4550 
Q 988 4650 1302 4700 
Q 1616 4750 1894 4750 
Q 2613 4750 3031 4423 
Q 3450 4097 3450 3541 
Q 3450 3153 3228 2886 
Q 3006 2619 2597 2516 
z
" transform="scale(0.015625)"/>
      </defs>
      <use xlink:href="#DejaVuSans-30"/>
      <use xlink:href="#DejaVuSans-78" x="63.623047"/>
      <use xlink:href="#DejaVuSans-33" x="122.802734"/>
     </g>
    </g>
   </g>
   <g id="text_26">
    <g clip-path="url(#p9ab361e0d5)">
     <!-- Z -->
     <g transform="translate(734.143848 47.870387) scale(0.13 -0.13)">
      <defs>
       <path id="DejaVuSans-5a" d="M 359 4666 
L 4025 4666 
L 4025 4184 
L 1075 531 
L 4097 531 
L 4097 0 
L 288 0 
L 288 481 
L 3238 4134 
L 359 4134 
L 359 4666 
z
" transform="scale(0.015625)"/>
      </defs>
      <use xlink:href="#DejaVuSans-5a"/>
     </g>
    </g>
   </g>
   <g id="text_27">
    <g clip-path="url(#p9ab361e0d5)">
     <!-- Z -->
     <g transform="translate(826.851846 140.578386) scale(0.13 -0.13)">
      <use xlink:href="#DejaVuSans-5a"/>
     </g>
    </g>
   </g>
   <g id="text_28">
    <g clip-path="url(#p9ab361e0d5)">
     <!-- Z -->
     <g transform="translate(919.559845 94.224386) scale(0.13 -0.13)">
      <use xlink:href="#DejaVuSans-5a"/>
     </g>
    </g>
   </g>
  </g>
 </g>
 <defs>
  <clipPath id="p9ab361e0d5">
   <rect x="7.2" y="7.2" width="947.405985" height="296.665596"/>
  </clipPath>
 </defs>
</svg>
