<?xml version="1.0" encoding="utf-8" standalone="no"?>
<!DOCTYPE svg PUBLIC "-//W3C//DTD SVG 1.1//EN"
  "http://www.w3.org/Graphics/SVG/1.1/DTD/svg11.dtd">
<svg xmlns:xlink="http://www.w3.org/1999/xlink" width="1193.575982pt" height="311.065596pt" viewBox="0 0 1193.575982 311.065596" xmlns="http://www.w3.org/2000/svg" version="1.1">
 <metadata>
  <rdf:RDF xmlns:dc="http://purl.org/dc/elements/1.1/" xmlns:cc="http://creativecommons.org/ns#" xmlns:rdf="http://www.w3.org/1999/02/22-rdf-syntax-ns#">
   <cc:Work>
    <dc:type rdf:resource="http://purl.org/dc/dcmitype/StillImage"/>
    <dc:date>2024-10-08T14:17:07.577890</dc:date>
    <dc:format>image/svg+xml</dc:format>
    <dc:creator>
     <cc:Agent>
      <dc:title>Matplotlib v3.9.2, https://matplotlib.org/</dc:title>
     </cc:Agent>
    </dc:creator>
   </cc:Work>
  </rdf:RDF>
 </metadata>
 <defs>
  <style type="text/css">*{stroke-linejoin: round; stroke-linecap: butt}</style>
 </defs>
 <g id="figure_1">
  <g id="patch_1">
   <path d="M 0 311.065596 
L 1193.575982 311.065596 
L 1193.575982 0 
L 0 0 
z
" style="fill: #ffffff"/>
  </g>
  <g id="axes_1">
   <g id="line2d_1">
    <path d="M 64.609196 44.2832 
L 1181.740582 44.2832 
" clip-path="url(#p5cf37bf1a9)" style="fill: none; stroke: #000000; stroke-width: 2; stroke-linecap: square"/>
   </g>
   <g id="line2d_2">
    <path d="M 64.609196 90.637199 
L 1181.740582 90.637199 
" clip-path="url(#p5cf37bf1a9)" style="fill: none; stroke: #000000; stroke-width: 2; stroke-linecap: square"/>
   </g>
   <g id="line2d_3">
    <path d="M 64.609196 136.991198 
L 1181.740582 136.991198 
" clip-path="url(#p5cf37bf1a9)" style="fill: none; stroke: #000000; stroke-width: 2; stroke-linecap: square"/>
   </g>
   <g id="line2d_4">
    <path d="M 64.609196 183.345198 
L 1181.740582 183.345198 
" clip-path="url(#p5cf37bf1a9)" style="fill: none; stroke: #000000; stroke-width: 2; stroke-linecap: square"/>
   </g>
   <g id="line2d_5">
    <path d="M 64.609196 229.699197 
L 1181.740582 229.699197 
" clip-path="url(#p5cf37bf1a9)" style="fill: none; stroke: #000000; stroke-width: 2; stroke-linecap: square"/>
   </g>
   <g id="line2d_6">
    <path d="M 64.609196 276.053196 
L 1181.740582 276.053196 
" clip-path="url(#p5cf37bf1a9)" style="fill: none; stroke: #000000; stroke-width: 2; stroke-linecap: square"/>
   </g>
   <g id="patch_2">
    <path d="M 59.973797 21.1062 
L -1098.876188 21.1062 
L -1098.876188 345.584196 
L 59.973797 345.584196 
z
" clip-path="url(#p5cf37bf1a9)" style="fill: #ffffff; stroke: #ffffff; stroke-width: 1.5; stroke-linejoin: miter"/>
   </g>
   <g id="line2d_7">
    <path d="M 159.171355 276.053196 
L 159.171355 229.699197 
" clip-path="url(#p5cf37bf1a9)" style="fill: none; stroke: #33b1ff; stroke-width: 2; stroke-linecap: square"/>
   </g>
   <g id="line2d_8">
    <path d="M 159.171355 276.053196 
L 159.171355 229.699197 
" clip-path="url(#p5cf37bf1a9)" style="fill: none; stroke: #33b1ff; stroke-width: 2; stroke-linecap: square"/>
   </g>
   <g id="line2d_9">
    <path d="M 251.879354 276.053196 
L 251.879354 183.345198 
" clip-path="url(#p5cf37bf1a9)" style="fill: none; stroke: #33b1ff; stroke-width: 2; stroke-linecap: square"/>
   </g>
   <g id="line2d_10">
    <path d="M 251.879354 276.053196 
L 251.879354 183.345198 
" clip-path="url(#p5cf37bf1a9)" style="fill: none; stroke: #33b1ff; stroke-width: 2; stroke-linecap: square"/>
   </g>
   <g id="line2d_11">
    <path d="M 344.587353 276.053196 
L 344.587353 44.2832 
" clip-path="url(#p5cf37bf1a9)" style="fill: none; stroke: #33b1ff; stroke-width: 2; stroke-linecap: square"/>
   </g>
   <g id="line2d_12">
    <path d="M 344.587353 276.053196 
L 344.587353 44.2832 
" clip-path="url(#p5cf37bf1a9)" style="fill: none; stroke: #33b1ff; stroke-width: 2; stroke-linecap: square"/>
   </g>
   <g id="line2d_13">
    <path d="M 483.649351 229.699197 
L 483.649351 183.345198 
" clip-path="url(#p5cf37bf1a9)" style="fill: none; stroke: #33b1ff; stroke-width: 2; stroke-linecap: square"/>
   </g>
   <g id="line2d_14">
    <path d="M 483.649351 229.699197 
L 483.649351 183.345198 
" clip-path="url(#p5cf37bf1a9)" style="fill: none; stroke: #33b1ff; stroke-width: 2; stroke-linecap: square"/>
   </g>
   <g id="line2d_15">
    <path d="M 576.35735 229.699197 
L 576.35735 44.2832 
" clip-path="url(#p5cf37bf1a9)" style="fill: none; stroke: #33b1ff; stroke-width: 2; stroke-linecap: square"/>
   </g>
   <g id="line2d_16">
    <path d="M 576.35735 229.699197 
L 576.35735 44.2832 
" clip-path="url(#p5cf37bf1a9)" style="fill: none; stroke: #33b1ff; stroke-width: 2; stroke-linecap: square"/>
   </g>
   <g id="line2d_17">
    <path d="M 715.419348 136.991198 
L 715.419348 90.637199 
" clip-path="url(#p5cf37bf1a9)" style="fill: none; stroke: #33b1ff; stroke-width: 2; stroke-linecap: square"/>
   </g>
   <g id="line2d_18">
    <path d="M 715.419348 136.991198 
L 715.419348 90.637199 
" clip-path="url(#p5cf37bf1a9)" style="fill: none; stroke: #33b1ff; stroke-width: 2; stroke-linecap: square"/>
   </g>
   <g id="line2d_19">
    <path d="M 808.127347 136.991198 
L 808.127347 44.2832 
" clip-path="url(#p5cf37bf1a9)" style="fill: none; stroke: #33b1ff; stroke-width: 2; stroke-linecap: square"/>
   </g>
   <g id="line2d_20">
    <path d="M 808.127347 136.991198 
L 808.127347 44.2832 
" clip-path="url(#p5cf37bf1a9)" style="fill: none; stroke: #33b1ff; stroke-width: 2; stroke-linecap: square"/>
   </g>
   <g id="line2d_21">
    <path d="M 947.189345 90.637199 
L 947.189345 44.2832 
" clip-path="url(#p5cf37bf1a9)" style="fill: none; stroke: #33b1ff; stroke-width: 2; stroke-linecap: square"/>
   </g>
   <g id="line2d_22">
    <path d="M 947.189345 90.637199 
L 947.189345 44.2832 
" clip-path="url(#p5cf37bf1a9)" style="fill: none; stroke: #33b1ff; stroke-width: 2; stroke-linecap: square"/>
   </g>
   <g id="line2d_23">
    <path d="M 1063.074343 44.2832 
L 1063.074343 276.053196 
" clip-path="url(#p5cf37bf1a9)" style="fill: none; stroke: #002d9c; stroke-width: 2; stroke-linecap: square"/>
   </g>
   <g id="line2d_24">
    <path d="M 1109.428343 90.637199 
L 1109.428343 229.699197 
" clip-path="url(#p5cf37bf1a9)" style="fill: none; stroke: #002d9c; stroke-width: 2; stroke-linecap: square"/>
   </g>
   <g id="line2d_25">
    <path d="M 1155.782342 136.991198 
L 1155.782342 183.345198 
" clip-path="url(#p5cf37bf1a9)" style="fill: none; stroke: #002d9c; stroke-width: 2; stroke-linecap: square"/>
   </g>
   <g id="line2d_26">
    <path d="M 1057.048323 50.309219 
L 1069.100363 38.25718 
" clip-path="url(#p5cf37bf1a9)" style="fill: none; stroke: #002d9c; stroke-width: 2; stroke-linecap: square"/>
   </g>
   <g id="line2d_27">
    <path d="M 1057.048323 38.25718 
L 1069.100363 50.309219 
" clip-path="url(#p5cf37bf1a9)" style="fill: none; stroke: #002d9c; stroke-width: 2; stroke-linecap: square"/>
   </g>
   <g id="line2d_28">
    <path d="M 1057.048323 282.079216 
L 1069.100363 270.027177 
" clip-path="url(#p5cf37bf1a9)" style="fill: none; stroke: #002d9c; stroke-width: 2; stroke-linecap: square"/>
   </g>
   <g id="line2d_29">
    <path d="M 1057.048323 270.027177 
L 1069.100363 282.079216 
" clip-path="url(#p5cf37bf1a9)" style="fill: none; stroke: #002d9c; stroke-width: 2; stroke-linecap: square"/>
   </g>
   <g id="line2d_30">
    <path d="M 1103.402323 96.663219 
L 1115.454363 84.611179 
" clip-path="url(#p5cf37bf1a9)" style="fill: none; stroke: #002d9c; stroke-width: 2; stroke-linecap: square"/>
   </g>
   <g id="line2d_31">
    <path d="M 1103.402323 84.611179 
L 1115.454363 96.663219 
" clip-path="url(#p5cf37bf1a9)" style="fill: none; stroke: #002d9c; stroke-width: 2; stroke-linecap: square"/>
   </g>
   <g id="line2d_32">
    <path d="M 1103.402323 235.725217 
L 1115.454363 223.673177 
" clip-path="url(#p5cf37bf1a9)" style="fill: none; stroke: #002d9c; stroke-width: 2; stroke-linecap: square"/>
   </g>
   <g id="line2d_33">
    <path d="M 1103.402323 223.673177 
L 1115.454363 235.725217 
" clip-path="url(#p5cf37bf1a9)" style="fill: none; stroke: #002d9c; stroke-width: 2; stroke-linecap: square"/>
   </g>
   <g id="line2d_34">
    <path d="M 1149.756322 143.017218 
L 1161.808362 130.965178 
" clip-path="url(#p5cf37bf1a9)" style="fill: none; stroke: #002d9c; stroke-width: 2; stroke-linecap: square"/>
   </g>
   <g id="line2d_35">
    <path d="M 1149.756322 130.965178 
L 1161.808362 143.017218 
" clip-path="url(#p5cf37bf1a9)" style="fill: none; stroke: #002d9c; stroke-width: 2; stroke-linecap: square"/>
   </g>
   <g id="line2d_36">
    <path d="M 1149.756322 189.371218 
L 1161.808362 177.319178 
" clip-path="url(#p5cf37bf1a9)" style="fill: none; stroke: #002d9c; stroke-width: 2; stroke-linecap: square"/>
   </g>
   <g id="line2d_37">
    <path d="M 1149.756322 177.319178 
L 1161.808362 189.371218 
" clip-path="url(#p5cf37bf1a9)" style="fill: none; stroke: #002d9c; stroke-width: 2; stroke-linecap: square"/>
   </g>
   <g id="patch_3">
    <path d="M 74.575306 291.118246 
L 104.705406 291.118246 
L 104.705406 260.988147 
L 74.575306 260.988147 
z
" clip-path="url(#p5cf37bf1a9)" style="fill: #fa4d56; stroke: #fa4d56; stroke-width: 1.5; stroke-linejoin: miter"/>
   </g>
   <g id="patch_4">
    <path d="M 159.171355 234.218712 
C 160.369945 234.218712 161.519604 233.742507 162.367135 232.894977 
C 163.214666 232.047446 163.69087 230.897786 163.69087 229.699197 
C 163.69087 228.500608 163.214666 227.350948 162.367135 226.503417 
C 161.519604 225.655887 160.369945 225.179682 159.171355 225.179682 
C 157.972766 225.179682 156.823106 225.655887 155.975576 226.503417 
C 155.128045 227.350948 154.65184 228.500608 154.65184 229.699197 
C 154.65184 230.897786 155.128045 232.047446 155.975576 232.894977 
C 156.823106 233.742507 157.972766 234.218712 159.171355 234.218712 
z
" clip-path="url(#p5cf37bf1a9)" style="fill: #33b1ff; stroke: #33b1ff; stroke-width: 1.5; stroke-linejoin: miter"/>
   </g>
   <g id="patch_5">
    <path d="M 159.171355 280.572711 
C 160.369945 280.572711 161.519604 280.096507 162.367135 279.248976 
C 163.214666 278.401445 163.69087 277.251786 163.69087 276.053196 
C 163.69087 274.854607 163.214666 273.704947 162.367135 272.857417 
C 161.519604 272.009886 160.369945 271.533681 159.171355 271.533681 
C 157.972766 271.533681 156.823106 272.009886 155.975576 272.857417 
C 155.128045 273.704947 154.65184 274.854607 154.65184 276.053196 
C 154.65184 277.251786 155.128045 278.401445 155.975576 279.248976 
C 156.823106 280.096507 157.972766 280.572711 159.171355 280.572711 
z
" clip-path="url(#p5cf37bf1a9)" style="fill: #33b1ff; stroke: #33b1ff; stroke-width: 1.5; stroke-linejoin: miter"/>
   </g>
   <g id="patch_6">
    <path d="M 251.879354 187.864713 
C 253.077943 187.864713 254.227603 187.388508 255.075134 186.540977 
C 255.922664 185.693447 256.398869 184.543787 256.398869 183.345198 
C 256.398869 182.146608 255.922664 180.996949 255.075134 180.149418 
C 254.227603 179.301887 253.077943 178.825683 251.879354 178.825683 
C 250.680765 178.825683 249.531105 179.301887 248.683574 180.149418 
C 247.836044 180.996949 247.359839 182.146608 247.359839 183.345198 
C 247.359839 184.543787 247.836044 185.693447 248.683574 186.540977 
C 249.531105 187.388508 250.680765 187.864713 251.879354 187.864713 
z
" clip-path="url(#p5cf37bf1a9)" style="fill: #33b1ff; stroke: #33b1ff; stroke-width: 1.5; stroke-linejoin: miter"/>
   </g>
   <g id="patch_7">
    <path d="M 251.879354 280.572711 
C 253.077943 280.572711 254.227603 280.096507 255.075134 279.248976 
C 255.922664 278.401445 256.398869 277.251786 256.398869 276.053196 
C 256.398869 274.854607 255.922664 273.704947 255.075134 272.857417 
C 254.227603 272.009886 253.077943 271.533681 251.879354 271.533681 
C 250.680765 271.533681 249.531105 272.009886 248.683574 272.857417 
C 247.836044 273.704947 247.359839 274.854607 247.359839 276.053196 
C 247.359839 277.251786 247.836044 278.401445 248.683574 279.248976 
C 249.531105 280.096507 250.680765 280.572711 251.879354 280.572711 
z
" clip-path="url(#p5cf37bf1a9)" style="fill: #33b1ff; stroke: #33b1ff; stroke-width: 1.5; stroke-linejoin: miter"/>
   </g>
   <g id="patch_8">
    <path d="M 344.587353 48.802714 
C 345.785942 48.802714 346.935602 48.32651 347.783132 47.478979 
C 348.630663 46.631448 349.106868 45.481789 349.106868 44.2832 
C 349.106868 43.08461 348.630663 41.934951 347.783132 41.08742 
C 346.935602 40.239889 345.785942 39.763685 344.587353 39.763685 
C 343.388763 39.763685 342.239104 40.239889 341.391573 41.08742 
C 340.544042 41.934951 340.067838 43.08461 340.067838 44.2832 
C 340.067838 45.481789 340.544042 46.631448 341.391573 47.478979 
C 342.239104 48.32651 343.388763 48.802714 344.587353 48.802714 
z
" clip-path="url(#p5cf37bf1a9)" style="fill: #33b1ff; stroke: #33b1ff; stroke-width: 1.5; stroke-linejoin: miter"/>
   </g>
   <g id="patch_9">
    <path d="M 344.587353 280.572711 
C 345.785942 280.572711 346.935602 280.096507 347.783132 279.248976 
C 348.630663 278.401445 349.106868 277.251786 349.106868 276.053196 
C 349.106868 274.854607 348.630663 273.704947 347.783132 272.857417 
C 346.935602 272.009886 345.785942 271.533681 344.587353 271.533681 
C 343.388763 271.533681 342.239104 272.009886 341.391573 272.857417 
C 340.544042 273.704947 340.067838 274.854607 340.067838 276.053196 
C 340.067838 277.251786 340.544042 278.401445 341.391573 279.248976 
C 342.239104 280.096507 343.388763 280.572711 344.587353 280.572711 
z
" clip-path="url(#p5cf37bf1a9)" style="fill: #33b1ff; stroke: #33b1ff; stroke-width: 1.5; stroke-linejoin: miter"/>
   </g>
   <g id="patch_10">
    <path d="M 399.053302 244.764247 
L 429.183402 244.764247 
L 429.183402 214.634147 
L 399.053302 214.634147 
z
" clip-path="url(#p5cf37bf1a9)" style="fill: #fa4d56; stroke: #fa4d56; stroke-width: 1.5; stroke-linejoin: miter"/>
   </g>
   <g id="patch_11">
    <path d="M 483.649351 187.864713 
C 484.84794 187.864713 485.9976 187.388508 486.845131 186.540977 
C 487.692661 185.693447 488.168866 184.543787 488.168866 183.345198 
C 488.168866 182.146608 487.692661 180.996949 486.845131 180.149418 
C 485.9976 179.301887 484.84794 178.825683 483.649351 178.825683 
C 482.450762 178.825683 481.301102 179.301887 480.453571 180.149418 
C 479.606041 180.996949 479.129836 182.146608 479.129836 183.345198 
C 479.129836 184.543787 479.606041 185.693447 480.453571 186.540977 
C 481.301102 187.388508 482.450762 187.864713 483.649351 187.864713 
z
" clip-path="url(#p5cf37bf1a9)" style="fill: #33b1ff; stroke: #33b1ff; stroke-width: 1.5; stroke-linejoin: miter"/>
   </g>
   <g id="patch_12">
    <path d="M 483.649351 234.218712 
C 484.84794 234.218712 485.9976 233.742507 486.845131 232.894977 
C 487.692661 232.047446 488.168866 230.897786 488.168866 229.699197 
C 488.168866 228.500608 487.692661 227.350948 486.845131 226.503417 
C 485.9976 225.655887 484.84794 225.179682 483.649351 225.179682 
C 482.450762 225.179682 481.301102 225.655887 480.453571 226.503417 
C 479.606041 227.350948 479.129836 228.500608 479.129836 229.699197 
C 479.129836 230.897786 479.606041 232.047446 480.453571 232.894977 
C 481.301102 233.742507 482.450762 234.218712 483.649351 234.218712 
z
" clip-path="url(#p5cf37bf1a9)" style="fill: #33b1ff; stroke: #33b1ff; stroke-width: 1.5; stroke-linejoin: miter"/>
   </g>
   <g id="patch_13">
    <path d="M 576.35735 48.802714 
C 577.555939 48.802714 578.705599 48.32651 579.553129 47.478979 
C 580.40066 46.631448 580.876865 45.481789 580.876865 44.2832 
C 580.876865 43.08461 580.40066 41.934951 579.553129 41.08742 
C 578.705599 40.239889 577.555939 39.763685 576.35735 39.763685 
C 575.15876 39.763685 574.009101 40.239889 573.16157 41.08742 
C 572.314039 41.934951 571.837835 43.08461 571.837835 44.2832 
C 571.837835 45.481789 572.314039 46.631448 573.16157 47.478979 
C 574.009101 48.32651 575.15876 48.802714 576.35735 48.802714 
z
" clip-path="url(#p5cf37bf1a9)" style="fill: #33b1ff; stroke: #33b1ff; stroke-width: 1.5; stroke-linejoin: miter"/>
   </g>
   <g id="patch_14">
    <path d="M 576.35735 234.218712 
C 577.555939 234.218712 578.705599 233.742507 579.553129 232.894977 
C 580.40066 232.047446 580.876865 230.897786 580.876865 229.699197 
C 580.876865 228.500608 580.40066 227.350948 579.553129 226.503417 
C 578.705599 225.655887 577.555939 225.179682 576.35735 225.179682 
C 575.15876 225.179682 574.009101 225.655887 573.16157 226.503417 
C 572.314039 227.350948 571.837835 228.500608 571.837835 229.699197 
C 571.837835 230.897786 572.314039 232.047446 573.16157 232.894977 
C 574.009101 233.742507 575.15876 234.218712 576.35735 234.218712 
z
" clip-path="url(#p5cf37bf1a9)" style="fill: #33b1ff; stroke: #33b1ff; stroke-width: 1.5; stroke-linejoin: miter"/>
   </g>
   <g id="patch_15">
    <path d="M 630.823299 152.056248 
L 660.953399 152.056248 
L 660.953399 121.926148 
L 630.823299 121.926148 
z
" clip-path="url(#p5cf37bf1a9)" style="fill: #fa4d56; stroke: #fa4d56; stroke-width: 1.5; stroke-linejoin: miter"/>
   </g>
   <g id="patch_16">
    <path d="M 715.419348 95.156714 
C 716.617937 95.156714 717.767597 94.680509 718.615127 93.832979 
C 719.462658 92.985448 719.938863 91.835788 719.938863 90.637199 
C 719.938863 89.43861 719.462658 88.28895 718.615127 87.441419 
C 717.767597 86.593889 716.617937 86.117684 715.419348 86.117684 
C 714.220758 86.117684 713.071099 86.593889 712.223568 87.441419 
C 711.376037 88.28895 710.899833 89.43861 710.899833 90.637199 
C 710.899833 91.835788 711.376037 92.985448 712.223568 93.832979 
C 713.071099 94.680509 714.220758 95.156714 715.419348 95.156714 
z
" clip-path="url(#p5cf37bf1a9)" style="fill: #33b1ff; stroke: #33b1ff; stroke-width: 1.5; stroke-linejoin: miter"/>
   </g>
   <g id="patch_17">
    <path d="M 715.419348 141.510713 
C 716.617937 141.510713 717.767597 141.034509 718.615127 140.186978 
C 719.462658 139.339447 719.938863 138.189788 719.938863 136.991198 
C 719.938863 135.792609 719.462658 134.642949 718.615127 133.795419 
C 717.767597 132.947888 716.617937 132.471683 715.419348 132.471683 
C 714.220758 132.471683 713.071099 132.947888 712.223568 133.795419 
C 711.376037 134.642949 710.899833 135.792609 710.899833 136.991198 
C 710.899833 138.189788 711.376037 139.339447 712.223568 140.186978 
C 713.071099 141.034509 714.220758 141.510713 715.419348 141.510713 
z
" clip-path="url(#p5cf37bf1a9)" style="fill: #33b1ff; stroke: #33b1ff; stroke-width: 1.5; stroke-linejoin: miter"/>
   </g>
   <g id="patch_18">
    <path d="M 808.127347 48.802714 
C 809.325936 48.802714 810.475596 48.32651 811.323126 47.478979 
C 812.170657 46.631448 812.646862 45.481789 812.646862 44.2832 
C 812.646862 43.08461 812.170657 41.934951 811.323126 41.08742 
C 810.475596 40.239889 809.325936 39.763685 808.127347 39.763685 
C 806.928757 39.763685 805.779098 40.239889 804.931567 41.08742 
C 804.084036 41.934951 803.607832 43.08461 803.607832 44.2832 
C 803.607832 45.481789 804.084036 46.631448 804.931567 47.478979 
C 805.779098 48.32651 806.928757 48.802714 808.127347 48.802714 
z
" clip-path="url(#p5cf37bf1a9)" style="fill: #33b1ff; stroke: #33b1ff; stroke-width: 1.5; stroke-linejoin: miter"/>
   </g>
   <g id="patch_19">
    <path d="M 808.127347 141.510713 
C 809.325936 141.510713 810.475596 141.034509 811.323126 140.186978 
C 812.170657 139.339447 812.646862 138.189788 812.646862 136.991198 
C 812.646862 135.792609 812.170657 134.642949 811.323126 133.795419 
C 810.475596 132.947888 809.325936 132.471683 808.127347 132.471683 
C 806.928757 132.471683 805.779098 132.947888 804.931567 133.795419 
C 804.084036 134.642949 803.607832 135.792609 803.607832 136.991198 
C 803.607832 138.189788 804.084036 139.339447 804.931567 140.186978 
C 805.779098 141.034509 806.928757 141.510713 808.127347 141.510713 
z
" clip-path="url(#p5cf37bf1a9)" style="fill: #33b1ff; stroke: #33b1ff; stroke-width: 1.5; stroke-linejoin: miter"/>
   </g>
   <g id="patch_20">
    <path d="M 862.593296 105.702249 
L 892.723395 105.702249 
L 892.723395 75.572149 
L 862.593296 75.572149 
z
" clip-path="url(#p5cf37bf1a9)" style="fill: #fa4d56; stroke: #fa4d56; stroke-width: 1.5; stroke-linejoin: miter"/>
   </g>
   <g id="patch_21">
    <path d="M 947.189345 48.802714 
C 948.387934 48.802714 949.537594 48.32651 950.385124 47.478979 
C 951.232655 46.631448 951.70886 45.481789 951.70886 44.2832 
C 951.70886 43.08461 951.232655 41.934951 950.385124 41.08742 
C 949.537594 40.239889 948.387934 39.763685 947.189345 39.763685 
C 945.990755 39.763685 944.841096 40.239889 943.993565 41.08742 
C 943.146034 41.934951 942.66983 43.08461 942.66983 44.2832 
C 942.66983 45.481789 943.146034 46.631448 943.993565 47.478979 
C 944.841096 48.32651 945.990755 48.802714 947.189345 48.802714 
z
" clip-path="url(#p5cf37bf1a9)" style="fill: #33b1ff; stroke: #33b1ff; stroke-width: 1.5; stroke-linejoin: miter"/>
   </g>
   <g id="patch_22">
    <path d="M 947.189345 95.156714 
C 948.387934 95.156714 949.537594 94.680509 950.385124 93.832979 
C 951.232655 92.985448 951.70886 91.835788 951.70886 90.637199 
C 951.70886 89.43861 951.232655 88.28895 950.385124 87.441419 
C 949.537594 86.593889 948.387934 86.117684 947.189345 86.117684 
C 945.990755 86.117684 944.841096 86.593889 943.993565 87.441419 
C 943.146034 88.28895 942.66983 89.43861 942.66983 90.637199 
C 942.66983 91.835788 943.146034 92.985448 943.993565 93.832979 
C 944.841096 94.680509 945.990755 95.156714 947.189345 95.156714 
z
" clip-path="url(#p5cf37bf1a9)" style="fill: #33b1ff; stroke: #33b1ff; stroke-width: 1.5; stroke-linejoin: miter"/>
   </g>
   <g id="patch_23">
    <path d="M 1001.655294 59.348249 
L 1031.785394 59.348249 
L 1031.785394 29.21815 
L 1001.655294 29.21815 
z
" clip-path="url(#p5cf37bf1a9)" style="fill: #fa4d56; stroke: #fa4d56; stroke-width: 1.5; stroke-linejoin: miter"/>
   </g>
   <g id="text_1">
    <g clip-path="url(#p5cf37bf1a9)">
     <!-- ${q}_{0}$ -->
     <g transform="translate(37.300897 48.734176) scale(0.1625 -0.1625)">
      <defs>
       <path id="DejaVuSans-Oblique-71" d="M 2669 525 
Q 2438 222 2123 65 
Q 1809 -91 1428 -91 
Q 897 -91 595 267 
Q 294 625 294 1253 
Q 294 1759 480 2231 
Q 666 2703 1013 3078 
Q 1238 3322 1530 3453 
Q 1822 3584 2144 3584 
Q 2531 3584 2781 3431 
Q 3031 3278 3144 2969 
L 3244 3494 
L 3822 3494 
L 2888 -1319 
L 2309 -1319 
L 2669 525 
z
M 891 1338 
Q 891 875 1084 633 
Q 1278 391 1644 391 
Q 2188 391 2572 911 
Q 2956 1431 2956 2175 
Q 2956 2625 2757 2864 
Q 2559 3103 2188 3103 
Q 1916 3103 1684 2976 
Q 1453 2850 1281 2606 
Q 1100 2350 995 2006 
Q 891 1663 891 1338 
z
" transform="scale(0.015625)"/>
       <path id="DejaVuSans-30" d="M 2034 4250 
Q 1547 4250 1301 3770 
Q 1056 3291 1056 2328 
Q 1056 1369 1301 889 
Q 1547 409 2034 409 
Q 2525 409 2770 889 
Q 3016 1369 3016 2328 
Q 3016 3291 2770 3770 
Q 2525 4250 2034 4250 
z
M 2034 4750 
Q 2819 4750 3233 4129 
Q 3647 3509 3647 2328 
Q 3647 1150 3233 529 
Q 2819 -91 2034 -91 
Q 1250 -91 836 529 
Q 422 1150 422 2328 
Q 422 3509 836 4129 
Q 1250 4750 2034 4750 
z
" transform="scale(0.015625)"/>
      </defs>
      <use xlink:href="#DejaVuSans-Oblique-71"/>
      <use xlink:href="#DejaVuSans-30" transform="translate(63.476562 -16.40625) scale(0.7)"/>
     </g>
    </g>
   </g>
   <g id="text_2">
    <g clip-path="url(#p5cf37bf1a9)">
     <!-- ${q}_{1}$ -->
     <g transform="translate(37.300897 95.088175) scale(0.1625 -0.1625)">
      <defs>
       <path id="DejaVuSans-31" d="M 794 531 
L 1825 531 
L 1825 4091 
L 703 3866 
L 703 4441 
L 1819 4666 
L 2450 4666 
L 2450 531 
L 3481 531 
L 3481 0 
L 794 0 
L 794 531 
z
" transform="scale(0.015625)"/>
      </defs>
      <use xlink:href="#DejaVuSans-Oblique-71"/>
      <use xlink:href="#DejaVuSans-31" transform="translate(63.476562 -16.40625) scale(0.7)"/>
     </g>
    </g>
   </g>
   <g id="text_3">
    <g clip-path="url(#p5cf37bf1a9)">
     <!-- ${q}_{2}$ -->
     <g transform="translate(37.300897 141.442175) scale(0.1625 -0.1625)">
      <defs>
       <path id="DejaVuSans-32" d="M 1228 531 
L 3431 531 
L 3431 0 
L 469 0 
L 469 531 
Q 828 903 1448 1529 
Q 2069 2156 2228 2338 
Q 2531 2678 2651 2914 
Q 2772 3150 2772 3378 
Q 2772 3750 2511 3984 
Q 2250 4219 1831 4219 
Q 1534 4219 1204 4116 
Q 875 4013 500 3803 
L 500 4441 
Q 881 4594 1212 4672 
Q 1544 4750 1819 4750 
Q 2544 4750 2975 4387 
Q 3406 4025 3406 3419 
Q 3406 3131 3298 2873 
Q 3191 2616 2906 2266 
Q 2828 2175 2409 1742 
Q 1991 1309 1228 531 
z
" transform="scale(0.015625)"/>
      </defs>
      <use xlink:href="#DejaVuSans-Oblique-71"/>
      <use xlink:href="#DejaVuSans-32" transform="translate(63.476562 -16.40625) scale(0.7)"/>
     </g>
    </g>
   </g>
   <g id="text_4">
    <g clip-path="url(#p5cf37bf1a9)">
     <!-- ${q}_{3}$ -->
     <g transform="translate(37.300897 187.796174) scale(0.1625 -0.1625)">
      <defs>
       <path id="DejaVuSans-33" d="M 2597 2516 
Q 3050 2419 3304 2112 
Q 3559 1806 3559 1356 
Q 3559 666 3084 287 
Q 2609 -91 1734 -91 
Q 1441 -91 1130 -33 
Q 819 25 488 141 
L 488 750 
Q 750 597 1062 519 
Q 1375 441 1716 441 
Q 2309 441 2620 675 
Q 2931 909 2931 1356 
Q 2931 1769 2642 2001 
Q 2353 2234 1838 2234 
L 1294 2234 
L 1294 2753 
L 1863 2753 
Q 2328 2753 2575 2939 
Q 2822 3125 2822 3475 
Q 2822 3834 2567 4026 
Q 2313 4219 1838 4219 
Q 1578 4219 1281 4162 
Q 984 4106 628 3988 
L 628 4550 
Q 988 4650 1302 4700 
Q 1616 4750 1894 4750 
Q 2613 4750 3031 4423 
Q 3450 4097 3450 3541 
Q 3450 3153 3228 2886 
Q 3006 2619 2597 2516 
z
" transform="scale(0.015625)"/>
      </defs>
      <use xlink:href="#DejaVuSans-Oblique-71"/>
      <use xlink:href="#DejaVuSans-33" transform="translate(63.476562 -16.40625) scale(0.7)"/>
     </g>
    </g>
   </g>
   <g id="text_5">
    <g clip-path="url(#p5cf37bf1a9)">
     <!-- ${q}_{4}$ -->
     <g transform="translate(37.300897 234.150174) scale(0.1625 -0.1625)">
      <defs>
       <path id="DejaVuSans-34" d="M 2419 4116 
L 825 1625 
L 2419 1625 
L 2419 4116 
z
M 2253 4666 
L 3047 4666 
L 3047 1625 
L 3713 1625 
L 3713 1100 
L 3047 1100 
L 3047 0 
L 2419 0 
L 2419 1100 
L 313 1100 
L 313 1709 
L 2253 4666 
z
" transform="scale(0.015625)"/>
      </defs>
      <use xlink:href="#DejaVuSans-Oblique-71"/>
      <use xlink:href="#DejaVuSans-34" transform="translate(63.476562 -16.40625) scale(0.7)"/>
     </g>
    </g>
   </g>
   <g id="text_6">
    <g clip-path="url(#p5cf37bf1a9)">
     <!-- ${q}_{5}$ -->
     <g transform="translate(37.300897 280.504173) scale(0.1625 -0.1625)">
      <defs>
       <path id="DejaVuSans-35" d="M 691 4666 
L 3169 4666 
L 3169 4134 
L 1269 4134 
L 1269 2991 
Q 1406 3038 1543 3061 
Q 1681 3084 1819 3084 
Q 2600 3084 3056 2656 
Q 3513 2228 3513 1497 
Q 3513 744 3044 326 
Q 2575 -91 1722 -91 
Q 1428 -91 1123 -41 
Q 819 9 494 109 
L 494 744 
Q 775 591 1075 516 
Q 1375 441 1709 441 
Q 2250 441 2565 725 
Q 2881 1009 2881 1497 
Q 2881 1984 2565 2268 
Q 2250 2553 1709 2553 
Q 1456 2553 1204 2497 
Q 953 2441 691 2322 
L 691 4666 
z
" transform="scale(0.015625)"/>
      </defs>
      <use xlink:href="#DejaVuSans-Oblique-71"/>
      <use xlink:href="#DejaVuSans-35" transform="translate(63.476562 -16.40625) scale(0.7)"/>
     </g>
    </g>
   </g>
   <g id="text_7">
    <g clip-path="url(#p5cf37bf1a9)">
     <!-- H -->
     <g transform="translate(84.752153 279.640384) scale(0.13 -0.13)">
      <defs>
       <path id="DejaVuSans-48" d="M 628 4666 
L 1259 4666 
L 1259 2753 
L 3553 2753 
L 3553 4666 
L 4184 4666 
L 4184 0 
L 3553 0 
L 3553 2222 
L 1259 2222 
L 1259 0 
L 628 0 
L 628 4666 
z
" transform="scale(0.015625)"/>
      </defs>
      <use xlink:href="#DejaVuSans-48"/>
     </g>
    </g>
   </g>
   <g id="text_8">
    <g clip-path="url(#p5cf37bf1a9)">
     <!-- P ($\pi$/2) -->
     <g transform="translate(165.176495 252.001847) scale(0.08 -0.08)">
      <defs>
       <path id="DejaVuSans-50" d="M 1259 4147 
L 1259 2394 
L 2053 2394 
Q 2494 2394 2734 2622 
Q 2975 2850 2975 3272 
Q 2975 3691 2734 3919 
Q 2494 4147 2053 4147 
L 1259 4147 
z
M 628 4666 
L 2053 4666 
Q 2838 4666 3239 4311 
Q 3641 3956 3641 3272 
Q 3641 2581 3239 2228 
Q 2838 1875 2053 1875 
L 1259 1875 
L 1259 0 
L 628 0 
L 628 4666 
z
" transform="scale(0.015625)"/>
       <path id="DejaVuSans-20" transform="scale(0.015625)"/>
       <path id="DejaVuSans-28" d="M 1984 4856 
Q 1566 4138 1362 3434 
Q 1159 2731 1159 2009 
Q 1159 1288 1364 580 
Q 1569 -128 1984 -844 
L 1484 -844 
Q 1016 -109 783 600 
Q 550 1309 550 2009 
Q 550 2706 781 3412 
Q 1013 4119 1484 4856 
L 1984 4856 
z
" transform="scale(0.015625)"/>
       <path id="DejaVuSans-Oblique-3c0" d="M 584 3500 
L 3938 3500 
L 3825 2925 
L 3384 2925 
L 2966 775 
Q 2922 550 2981 450 
Q 3038 353 3209 353 
Q 3256 353 3325 363 
Q 3397 369 3419 372 
L 3338 -44 
Q 3222 -84 3103 -103 
Q 2981 -122 2866 -122 
Q 2491 -122 2388 81 
Q 2284 288 2391 838 
L 2797 2925 
L 1506 2925 
L 938 0 
L 350 0 
L 919 2925 
L 472 2925 
L 584 3500 
z
" transform="scale(0.015625)"/>
       <path id="DejaVuSans-2f" d="M 1625 4666 
L 2156 4666 
L 531 -594 
L 0 -594 
L 1625 4666 
z
" transform="scale(0.015625)"/>
       <path id="DejaVuSans-29" d="M 513 4856 
L 1013 4856 
Q 1481 4119 1714 3412 
Q 1947 2706 1947 2009 
Q 1947 1309 1714 600 
Q 1481 -109 1013 -844 
L 513 -844 
Q 928 -128 1133 580 
Q 1338 1288 1338 2009 
Q 1338 2731 1133 3434 
Q 928 4138 513 4856 
z
" transform="scale(0.015625)"/>
      </defs>
      <use xlink:href="#DejaVuSans-50" transform="translate(0 0.125)"/>
      <use xlink:href="#DejaVuSans-20" transform="translate(60.302734 0.125)"/>
      <use xlink:href="#DejaVuSans-28" transform="translate(92.089844 0.125)"/>
      <use xlink:href="#DejaVuSans-Oblique-3c0" transform="translate(131.103516 0.125)"/>
      <use xlink:href="#DejaVuSans-2f" transform="translate(191.308594 0.125)"/>
      <use xlink:href="#DejaVuSans-32" transform="translate(221.375 0.125)"/>
      <use xlink:href="#DejaVuSans-29" transform="translate(284.998047 0.125)"/>
     </g>
    </g>
   </g>
   <g id="text_9">
    <g clip-path="url(#p5cf37bf1a9)">
     <!-- P ($\pi$/4) -->
     <g transform="translate(257.764494 252.001847) scale(0.08 -0.08)">
      <use xlink:href="#DejaVuSans-50" transform="translate(0 0.125)"/>
      <use xlink:href="#DejaVuSans-20" transform="translate(60.302734 0.125)"/>
      <use xlink:href="#DejaVuSans-28" transform="translate(92.089844 0.125)"/>
      <use xlink:href="#DejaVuSans-Oblique-3c0" transform="translate(131.103516 0.125)"/>
      <use xlink:href="#DejaVuSans-2f" transform="translate(191.308594 0.125)"/>
      <use xlink:href="#DejaVuSans-34" transform="translate(225 0.125)"/>
      <use xlink:href="#DejaVuSans-29" transform="translate(288.623047 0.125)"/>
     </g>
    </g>
   </g>
   <g id="text_10">
    <g clip-path="url(#p5cf37bf1a9)">
     <!-- P ($\pi/2^{n\minus 1}$) -->
     <g transform="translate(351.241895 252.579347) scale(0.08 -0.08)">
      <defs>
       <path id="DejaVuSans-Oblique-6e" d="M 3566 2113 
L 3156 0 
L 2578 0 
L 2988 2091 
Q 3016 2238 3031 2350 
Q 3047 2463 3047 2528 
Q 3047 2791 2881 2937 
Q 2716 3084 2419 3084 
Q 1956 3084 1622 2776 
Q 1288 2469 1184 1941 
L 800 0 
L 225 0 
L 903 3500 
L 1478 3500 
L 1363 2950 
Q 1603 3253 1940 3418 
Q 2278 3584 2650 3584 
Q 3113 3584 3367 3334 
Q 3622 3084 3622 2631 
Q 3622 2519 3608 2391 
Q 3594 2263 3566 2113 
z
" transform="scale(0.015625)"/>
       <path id="DejaVuSans-2212" d="M 678 2272 
L 4684 2272 
L 4684 1741 
L 678 1741 
L 678 2272 
z
" transform="scale(0.015625)"/>
      </defs>
      <use xlink:href="#DejaVuSans-50" transform="translate(0 0.684375)"/>
      <use xlink:href="#DejaVuSans-20" transform="translate(60.302734 0.684375)"/>
      <use xlink:href="#DejaVuSans-28" transform="translate(92.089844 0.684375)"/>
      <use xlink:href="#DejaVuSans-Oblique-3c0" transform="translate(131.103516 0.684375)"/>
      <use xlink:href="#DejaVuSans-2f" transform="translate(191.308594 0.684375)"/>
      <use xlink:href="#DejaVuSans-32" transform="translate(225 0.684375)"/>
      <use xlink:href="#DejaVuSans-Oblique-6e" transform="translate(289.580078 38.965625) scale(0.7)"/>
      <use xlink:href="#DejaVuSans-2212" transform="translate(333.945312 38.965625) scale(0.7)"/>
      <use xlink:href="#DejaVuSans-31" transform="translate(392.597656 38.965625) scale(0.7)"/>
      <use xlink:href="#DejaVuSans-29" transform="translate(439.868164 0.684375)"/>
     </g>
    </g>
   </g>
   <g id="text_11">
    <g clip-path="url(#p5cf37bf1a9)">
     <!-- H -->
     <g transform="translate(409.230149 233.286385) scale(0.13 -0.13)">
      <use xlink:href="#DejaVuSans-48"/>
     </g>
    </g>
   </g>
   <g id="text_12">
    <g clip-path="url(#p5cf37bf1a9)">
     <!-- P ($\pi$/2) -->
     <g transform="translate(489.654491 205.647847) scale(0.08 -0.08)">
      <use xlink:href="#DejaVuSans-50" transform="translate(0 0.125)"/>
      <use xlink:href="#DejaVuSans-20" transform="translate(60.302734 0.125)"/>
      <use xlink:href="#DejaVuSans-28" transform="translate(92.089844 0.125)"/>
      <use xlink:href="#DejaVuSans-Oblique-3c0" transform="translate(131.103516 0.125)"/>
      <use xlink:href="#DejaVuSans-2f" transform="translate(191.308594 0.125)"/>
      <use xlink:href="#DejaVuSans-32" transform="translate(221.375 0.125)"/>
      <use xlink:href="#DejaVuSans-29" transform="translate(284.998047 0.125)"/>
     </g>
    </g>
   </g>
   <g id="text_13">
    <g clip-path="url(#p5cf37bf1a9)">
     <!-- P ($\pi/2^{n\minus 2}$) -->
     <g transform="translate(583.060564 206.305347) scale(0.08 -0.08)">
      <use xlink:href="#DejaVuSans-50" transform="translate(0 0.765625)"/>
      <use xlink:href="#DejaVuSans-20" transform="translate(60.302734 0.765625)"/>
      <use xlink:href="#DejaVuSans-28" transform="translate(92.089844 0.765625)"/>
      <use xlink:href="#DejaVuSans-Oblique-3c0" transform="translate(131.103516 0.765625)"/>
      <use xlink:href="#DejaVuSans-2f" transform="translate(191.308594 0.765625)"/>
      <use xlink:href="#DejaVuSans-32" transform="translate(225 0.765625)"/>
      <use xlink:href="#DejaVuSans-Oblique-6e" transform="translate(289.580078 39.046875) scale(0.7)"/>
      <use xlink:href="#DejaVuSans-2212" transform="translate(333.945312 39.046875) scale(0.7)"/>
      <use xlink:href="#DejaVuSans-32" transform="translate(392.597656 39.046875) scale(0.7)"/>
      <use xlink:href="#DejaVuSans-29" transform="translate(439.868164 0.765625)"/>
     </g>
    </g>
   </g>
   <g id="text_14">
    <g clip-path="url(#p5cf37bf1a9)">
     <!-- H -->
     <g transform="translate(641.000146 140.578386) scale(0.13 -0.13)">
      <use xlink:href="#DejaVuSans-48"/>
     </g>
    </g>
   </g>
   <g id="text_15">
    <g clip-path="url(#p5cf37bf1a9)">
     <!-- P ($\pi$/2) -->
     <g transform="translate(721.424488 112.939849) scale(0.08 -0.08)">
      <use xlink:href="#DejaVuSans-50" transform="translate(0 0.125)"/>
      <use xlink:href="#DejaVuSans-20" transform="translate(60.302734 0.125)"/>
      <use xlink:href="#DejaVuSans-28" transform="translate(92.089844 0.125)"/>
      <use xlink:href="#DejaVuSans-Oblique-3c0" transform="translate(131.103516 0.125)"/>
      <use xlink:href="#DejaVuSans-2f" transform="translate(191.308594 0.125)"/>
      <use xlink:href="#DejaVuSans-32" transform="translate(221.375 0.125)"/>
      <use xlink:href="#DejaVuSans-29" transform="translate(284.998047 0.125)"/>
     </g>
    </g>
   </g>
   <g id="text_16">
    <g clip-path="url(#p5cf37bf1a9)">
     <!-- P ($\pi$/4) -->
     <g transform="translate(814.012486 112.939849) scale(0.08 -0.08)">
      <use xlink:href="#DejaVuSans-50" transform="translate(0 0.125)"/>
      <use xlink:href="#DejaVuSans-20" transform="translate(60.302734 0.125)"/>
      <use xlink:href="#DejaVuSans-28" transform="translate(92.089844 0.125)"/>
      <use xlink:href="#DejaVuSans-Oblique-3c0" transform="translate(131.103516 0.125)"/>
      <use xlink:href="#DejaVuSans-2f" transform="translate(191.308594 0.125)"/>
      <use xlink:href="#DejaVuSans-34" transform="translate(225 0.125)"/>
      <use xlink:href="#DejaVuSans-29" transform="translate(288.623047 0.125)"/>
     </g>
    </g>
   </g>
   <g id="text_17">
    <g clip-path="url(#p5cf37bf1a9)">
     <!-- H -->
     <g transform="translate(872.770143 94.224386) scale(0.13 -0.13)">
      <use xlink:href="#DejaVuSans-48"/>
     </g>
    </g>
   </g>
   <g id="text_18">
    <g clip-path="url(#p5cf37bf1a9)">
     <!-- P ($\pi$/2) -->
     <g transform="translate(953.194484 66.585849) scale(0.08 -0.08)">
      <use xlink:href="#DejaVuSans-50" transform="translate(0 0.125)"/>
      <use xlink:href="#DejaVuSans-20" transform="translate(60.302734 0.125)"/>
      <use xlink:href="#DejaVuSans-28" transform="translate(92.089844 0.125)"/>
      <use xlink:href="#DejaVuSans-Oblique-3c0" transform="translate(131.103516 0.125)"/>
      <use xlink:href="#DejaVuSans-2f" transform="translate(191.308594 0.125)"/>
      <use xlink:href="#DejaVuSans-32" transform="translate(221.375 0.125)"/>
      <use xlink:href="#DejaVuSans-29" transform="translate(284.998047 0.125)"/>
     </g>
    </g>
   </g>
   <g id="text_19">
    <g clip-path="url(#p5cf37bf1a9)">
     <!-- H -->
     <g transform="translate(1011.832141 47.870387) scale(0.13 -0.13)">
      <use xlink:href="#DejaVuSans-48"/>
     </g>
    </g>
   </g>
  </g>
 </g>
 <defs>
  <clipPath id="p5cf37bf1a9">
   <rect x="7.2" y="7.2" width="1179.175982" height="296.665596"/>
  </clipPath>
 </defs>
</svg>
