<?xml version="1.0" encoding="utf-8" standalone="no"?>
<!DOCTYPE svg PUBLIC "-//W3C//DTD SVG 1.1//EN"
  "http://www.w3.org/Graphics/SVG/1.1/DTD/svg11.dtd">
<svg xmlns:xlink="http://www.w3.org/1999/xlink" width="521.582516pt" height="264.711597pt" viewBox="0 0 521.582516 264.711597" xmlns="http://www.w3.org/2000/svg" version="1.1">
 <metadata>
  <rdf:RDF xmlns:dc="http://purl.org/dc/elements/1.1/" xmlns:cc="http://creativecommons.org/ns#" xmlns:rdf="http://www.w3.org/1999/02/22-rdf-syntax-ns#">
   <cc:Work>
    <dc:type rdf:resource="http://purl.org/dc/dcmitype/StillImage"/>
    <dc:date>2024-10-08T14:10:51.416952</dc:date>
    <dc:format>image/svg+xml</dc:format>
    <dc:creator>
     <cc:Agent>
      <dc:title>Matplotlib v3.9.2, https://matplotlib.org/</dc:title>
     </cc:Agent>
    </dc:creator>
   </cc:Work>
  </rdf:RDF>
 </metadata>
 <defs>
  <style type="text/css">*{stroke-linejoin: round; stroke-linecap: butt}</style>
 </defs>
 <g id="figure_1">
  <g id="patch_1">
   <path d="M 0 264.711597 
L 521.582516 264.711597 
L 521.582516 0 
L 0 0 
z
" style="fill: #ffffff"/>
  </g>
  <g id="axes_1">
   <g id="line2d_1">
    <path d="M 87.925722 44.2832 
L 509.747116 44.2832 
" clip-path="url(#pd5c57bfabc)" style="fill: none; stroke: #000000; stroke-width: 2; stroke-linecap: square"/>
   </g>
   <g id="line2d_2">
    <path d="M 87.925722 90.637199 
L 509.747116 90.637199 
" clip-path="url(#pd5c57bfabc)" style="fill: none; stroke: #000000; stroke-width: 2; stroke-linecap: square"/>
   </g>
   <g id="line2d_3">
    <path d="M 87.925722 136.991198 
L 509.747116 136.991198 
" clip-path="url(#pd5c57bfabc)" style="fill: none; stroke: #000000; stroke-width: 2; stroke-linecap: square"/>
   </g>
   <g id="line2d_4">
    <path d="M 87.925722 183.345198 
L 509.747116 183.345198 
" clip-path="url(#pd5c57bfabc)" style="fill: none; stroke: #000000; stroke-width: 2; stroke-linecap: square"/>
   </g>
   <g id="line2d_5">
    <path d="M 97.196522 234.334597 
L 101.831922 225.063797 
" clip-path="url(#pd5c57bfabc)" style="fill: none; stroke: #778899; stroke-width: 1.5; stroke-linecap: square"/>
   </g>
   <g id="line2d_6">
    <path d="M 87.925722 228.192692 
L 509.747116 228.192692 
" clip-path="url(#pd5c57bfabc)" style="fill: none; stroke: #778899; stroke-width: 2; stroke-linecap: square"/>
   </g>
   <g id="line2d_7">
    <path d="M 87.925722 231.205702 
L 509.747116 231.205702 
" clip-path="url(#pd5c57bfabc)" style="fill: none; stroke: #778899; stroke-width: 2; stroke-linecap: square"/>
   </g>
   <g id="patch_2">
    <path d="M 338.700858 219.153662 
L 350.752898 219.153662 
L 344.726878 227.845037 
z
" clip-path="url(#pd5c57bfabc)" style="fill: #778899"/>
   </g>
   <g id="patch_3">
    <path d="M 385.054858 219.153662 
L 397.106898 219.153662 
L 391.080878 227.845037 
z
" clip-path="url(#pd5c57bfabc)" style="fill: #778899"/>
   </g>
   <g id="patch_4">
    <path d="M 431.408857 219.153662 
L 443.460897 219.153662 
L 437.434877 227.845037 
z
" clip-path="url(#pd5c57bfabc)" style="fill: #778899"/>
   </g>
   <g id="patch_5">
    <path d="M 477.762857 219.153662 
L 489.814896 219.153662 
L 483.788876 227.845037 
z
" clip-path="url(#pd5c57bfabc)" style="fill: #778899"/>
   </g>
   <g id="patch_6">
    <path d="M 83.290322 21.1062 
L -1075.559663 21.1062 
L -1075.559663 299.230196 
L 83.290322 299.230196 
z
" clip-path="url(#pd5c57bfabc)" style="fill: #ffffff; stroke: #ffffff; stroke-width: 1.5; stroke-linejoin: miter"/>
   </g>
   <g id="line2d_8">
    <path d="M 159.310881 183.345198 
L 159.310881 44.2832 
" clip-path="url(#pd5c57bfabc)" style="fill: none; stroke: #9f1853; stroke-width: 2; stroke-linecap: square"/>
   </g>
   <g id="line2d_9">
    <path d="M 205.66488 183.345198 
L 205.66488 90.637199 
" clip-path="url(#pd5c57bfabc)" style="fill: none; stroke: #9f1853; stroke-width: 2; stroke-linecap: square"/>
   </g>
   <g id="line2d_10">
    <path d="M 252.01888 183.345198 
L 252.01888 136.991198 
" clip-path="url(#pd5c57bfabc)" style="fill: none; stroke: #9f1853; stroke-width: 2; stroke-linecap: square"/>
   </g>
   <g id="line2d_11">
    <path d="M 346.233383 44.2832 
L 346.233383 219.153662 
" clip-path="url(#pd5c57bfabc)" style="fill: none; stroke: #778899; stroke-width: 2; stroke-linecap: square"/>
   </g>
   <g id="line2d_12">
    <path d="M 343.220373 44.2832 
L 343.220373 219.153662 
" clip-path="url(#pd5c57bfabc)" style="fill: none; stroke: #778899; stroke-width: 2; stroke-linecap: square"/>
   </g>
   <g id="line2d_13">
    <path d="M 392.587383 90.637199 
L 392.587383 219.153662 
" clip-path="url(#pd5c57bfabc)" style="fill: none; stroke: #778899; stroke-width: 2; stroke-linecap: square"/>
   </g>
   <g id="line2d_14">
    <path d="M 389.574373 90.637199 
L 389.574373 219.153662 
" clip-path="url(#pd5c57bfabc)" style="fill: none; stroke: #778899; stroke-width: 2; stroke-linecap: square"/>
   </g>
   <g id="line2d_15">
    <path d="M 438.941382 136.991198 
L 438.941382 219.153662 
" clip-path="url(#pd5c57bfabc)" style="fill: none; stroke: #778899; stroke-width: 2; stroke-linecap: square"/>
   </g>
   <g id="line2d_16">
    <path d="M 435.928372 136.991198 
L 435.928372 219.153662 
" clip-path="url(#pd5c57bfabc)" style="fill: none; stroke: #778899; stroke-width: 2; stroke-linecap: square"/>
   </g>
   <g id="line2d_17">
    <path d="M 485.295381 183.345198 
L 485.295381 219.153662 
" clip-path="url(#pd5c57bfabc)" style="fill: none; stroke: #778899; stroke-width: 2; stroke-linecap: square"/>
   </g>
   <g id="line2d_18">
    <path d="M 482.282371 183.345198 
L 482.282371 219.153662 
" clip-path="url(#pd5c57bfabc)" style="fill: none; stroke: #778899; stroke-width: 2; stroke-linecap: square"/>
   </g>
   <g id="patch_7">
    <path d="M 97.891832 59.348249 
L 128.021931 59.348249 
L 128.021931 29.21815 
L 97.891832 29.21815 
z
" clip-path="url(#pd5c57bfabc)" style="fill: #fa4d56; stroke: #fa4d56; stroke-width: 1.5; stroke-linejoin: miter"/>
   </g>
   <g id="patch_8">
    <path d="M 97.891832 105.702249 
L 128.021931 105.702249 
L 128.021931 75.572149 
L 97.891832 75.572149 
z
" clip-path="url(#pd5c57bfabc)" style="fill: #fa4d56; stroke: #fa4d56; stroke-width: 1.5; stroke-linejoin: miter"/>
   </g>
   <g id="patch_9">
    <path d="M 97.891832 152.056248 
L 128.021931 152.056248 
L 128.021931 121.926148 
L 97.891832 121.926148 
z
" clip-path="url(#pd5c57bfabc)" style="fill: #fa4d56; stroke: #fa4d56; stroke-width: 1.5; stroke-linejoin: miter"/>
   </g>
   <g id="patch_10">
    <path d="M 97.891832 198.410247 
L 128.021931 198.410247 
L 128.021931 168.280148 
L 97.891832 168.280148 
z
" clip-path="url(#pd5c57bfabc)" style="fill: #002d9c; stroke: #002d9c; stroke-width: 1.5; stroke-linejoin: miter"/>
   </g>
   <g id="patch_11">
    <path d="M 159.310881 48.802714 
C 160.50947 48.802714 161.65913 48.32651 162.50666 47.478979 
C 163.354191 46.631448 163.830396 45.481789 163.830396 44.2832 
C 163.830396 43.08461 163.354191 41.934951 162.50666 41.08742 
C 161.65913 40.239889 160.50947 39.763685 159.310881 39.763685 
C 158.112291 39.763685 156.962632 40.239889 156.115101 41.08742 
C 155.26757 41.934951 154.791366 43.08461 154.791366 44.2832 
C 154.791366 45.481789 155.26757 46.631448 156.115101 47.478979 
C 156.962632 48.32651 158.112291 48.802714 159.310881 48.802714 
z
" clip-path="url(#pd5c57bfabc)" style="fill: #9f1853; stroke: #9f1853; stroke-width: 1.5; stroke-linejoin: miter"/>
   </g>
   <g id="patch_12">
    <path d="M 144.245831 198.410247 
L 174.375931 198.410247 
L 174.375931 168.280148 
L 144.245831 168.280148 
z
" clip-path="url(#pd5c57bfabc)" style="fill: #9f1853; stroke: #9f1853; stroke-width: 1.5; stroke-linejoin: miter"/>
   </g>
   <g id="patch_13">
    <path d="M 205.66488 95.156714 
C 206.86347 95.156714 208.013129 94.680509 208.86066 93.832979 
C 209.70819 92.985448 210.184395 91.835788 210.184395 90.637199 
C 210.184395 89.43861 209.70819 88.28895 208.86066 87.441419 
C 208.013129 86.593889 206.86347 86.117684 205.66488 86.117684 
C 204.466291 86.117684 203.316631 86.593889 202.4691 87.441419 
C 201.62157 88.28895 201.145365 89.43861 201.145365 90.637199 
C 201.145365 91.835788 201.62157 92.985448 202.4691 93.832979 
C 203.316631 94.680509 204.466291 95.156714 205.66488 95.156714 
z
" clip-path="url(#pd5c57bfabc)" style="fill: #9f1853; stroke: #9f1853; stroke-width: 1.5; stroke-linejoin: miter"/>
   </g>
   <g id="patch_14">
    <path d="M 190.59983 198.410247 
L 220.72993 198.410247 
L 220.72993 168.280148 
L 190.59983 168.280148 
z
" clip-path="url(#pd5c57bfabc)" style="fill: #9f1853; stroke: #9f1853; stroke-width: 1.5; stroke-linejoin: miter"/>
   </g>
   <g id="patch_15">
    <path d="M 252.01888 141.510713 
C 253.217469 141.510713 254.367129 141.034509 255.214659 140.186978 
C 256.06219 139.339447 256.538394 138.189788 256.538394 136.991198 
C 256.538394 135.792609 256.06219 134.642949 255.214659 133.795419 
C 254.367129 132.947888 253.217469 132.471683 252.01888 132.471683 
C 250.82029 132.471683 249.670631 132.947888 248.8231 133.795419 
C 247.975569 134.642949 247.499365 135.792609 247.499365 136.991198 
C 247.499365 138.189788 247.975569 139.339447 248.8231 140.186978 
C 249.670631 141.034509 250.82029 141.510713 252.01888 141.510713 
z
" clip-path="url(#pd5c57bfabc)" style="fill: #9f1853; stroke: #9f1853; stroke-width: 1.5; stroke-linejoin: miter"/>
   </g>
   <g id="patch_16">
    <path d="M 236.95383 198.410247 
L 267.083929 198.410247 
L 267.083929 168.280148 
L 236.95383 168.280148 
z
" clip-path="url(#pd5c57bfabc)" style="fill: #9f1853; stroke: #9f1853; stroke-width: 1.5; stroke-linejoin: miter"/>
   </g>
   <g id="patch_17">
    <path d="M 277.766208 152.056248 
L 318.979549 152.056248 
L 318.979549 29.21815 
L 277.766208 29.21815 
z
" clip-path="url(#pd5c57bfabc)" style="fill: #9f1853; stroke: #9f1853; stroke-width: 1.5; stroke-linejoin: miter"/>
   </g>
   <g id="patch_18">
    <path d="M 329.661828 59.348249 
L 359.791928 59.348249 
L 359.791928 29.21815 
L 329.661828 29.21815 
z
" clip-path="url(#pd5c57bfabc)" style="fill: #a8a8a8; stroke: #a8a8a8; stroke-width: 1.5; stroke-linejoin: miter"/>
   </g>
   <g id="patch_19">
    <path d="M 355.272413 48.802714 
C 355.272413 46.006937 354.16061 43.322808 352.183697 41.345895 
C 350.206785 39.368982 347.522655 38.25718 344.726878 38.25718 
C 341.931101 38.25718 339.246972 39.368982 337.270059 41.345895 
C 335.293146 43.322808 334.181343 46.006937 334.181343 48.802714 
" clip-path="url(#pd5c57bfabc)" style="fill: none; stroke: #000000; stroke-width: 2; stroke-linejoin: miter"/>
   </g>
   <g id="line2d_19">
    <path d="M 344.726878 48.802714 
L 355.272413 38.25718 
" clip-path="url(#pd5c57bfabc)" style="fill: none; stroke: #000000; stroke-width: 2; stroke-linecap: square"/>
   </g>
   <g id="patch_20">
    <path d="M 376.015828 105.702249 
L 406.145927 105.702249 
L 406.145927 75.572149 
L 376.015828 75.572149 
z
" clip-path="url(#pd5c57bfabc)" style="fill: #a8a8a8; stroke: #a8a8a8; stroke-width: 1.5; stroke-linejoin: miter"/>
   </g>
   <g id="patch_21">
    <path d="M 401.626413 95.156714 
C 401.626413 92.360937 400.51461 89.676808 398.537697 87.699895 
C 396.560784 85.722982 393.876655 84.611179 391.080878 84.611179 
C 388.285101 84.611179 385.600971 85.722982 383.624058 87.699895 
C 381.647146 89.676808 380.535343 92.360937 380.535343 95.156714 
" clip-path="url(#pd5c57bfabc)" style="fill: none; stroke: #000000; stroke-width: 2; stroke-linejoin: miter"/>
   </g>
   <g id="line2d_20">
    <path d="M 391.080878 95.156714 
L 401.626413 84.611179 
" clip-path="url(#pd5c57bfabc)" style="fill: none; stroke: #000000; stroke-width: 2; stroke-linecap: square"/>
   </g>
   <g id="patch_22">
    <path d="M 422.369827 152.056248 
L 452.499927 152.056248 
L 452.499927 121.926148 
L 422.369827 121.926148 
z
" clip-path="url(#pd5c57bfabc)" style="fill: #a8a8a8; stroke: #a8a8a8; stroke-width: 1.5; stroke-linejoin: miter"/>
   </g>
   <g id="patch_23">
    <path d="M 447.980412 141.510713 
C 447.980412 138.714936 446.868609 136.030807 444.891696 134.053894 
C 442.914783 132.076981 440.230654 130.965178 437.434877 130.965178 
C 434.6391 130.965178 431.954971 132.076981 429.978058 134.053894 
C 428.001145 136.030807 426.889342 138.714936 426.889342 141.510713 
" clip-path="url(#pd5c57bfabc)" style="fill: none; stroke: #000000; stroke-width: 2; stroke-linejoin: miter"/>
   </g>
   <g id="line2d_21">
    <path d="M 437.434877 141.510713 
L 447.980412 130.965178 
" clip-path="url(#pd5c57bfabc)" style="fill: none; stroke: #000000; stroke-width: 2; stroke-linecap: square"/>
   </g>
   <g id="patch_24">
    <path d="M 468.723827 198.410247 
L 498.853926 198.410247 
L 498.853926 168.280148 
L 468.723827 168.280148 
z
" clip-path="url(#pd5c57bfabc)" style="fill: #a8a8a8; stroke: #a8a8a8; stroke-width: 1.5; stroke-linejoin: miter"/>
   </g>
   <g id="patch_25">
    <path d="M 494.334411 187.864713 
C 494.334411 185.068936 493.222609 182.384806 491.245696 180.407893 
C 489.268783 178.43098 486.584654 177.319178 483.788876 177.319178 
C 480.993099 177.319178 478.30897 178.43098 476.332057 180.407893 
C 474.355144 182.384806 473.243342 185.068936 473.243342 187.864713 
" clip-path="url(#pd5c57bfabc)" style="fill: none; stroke: #000000; stroke-width: 2; stroke-linejoin: miter"/>
   </g>
   <g id="line2d_22">
    <path d="M 483.788876 187.864713 
L 494.334411 177.319178 
" clip-path="url(#pd5c57bfabc)" style="fill: none; stroke: #000000; stroke-width: 2; stroke-linecap: square"/>
   </g>
   <g id="text_1">
    <g clip-path="url(#pd5c57bfabc)">
     <!-- ${q}_{0}$ -->
     <g transform="translate(60.617422 48.734176) scale(0.1625 -0.1625)">
      <defs>
       <path id="DejaVuSans-Oblique-71" d="M 2669 525 
Q 2438 222 2123 65 
Q 1809 -91 1428 -91 
Q 897 -91 595 267 
Q 294 625 294 1253 
Q 294 1759 480 2231 
Q 666 2703 1013 3078 
Q 1238 3322 1530 3453 
Q 1822 3584 2144 3584 
Q 2531 3584 2781 3431 
Q 3031 3278 3144 2969 
L 3244 3494 
L 3822 3494 
L 2888 -1319 
L 2309 -1319 
L 2669 525 
z
M 891 1338 
Q 891 875 1084 633 
Q 1278 391 1644 391 
Q 2188 391 2572 911 
Q 2956 1431 2956 2175 
Q 2956 2625 2757 2864 
Q 2559 3103 2188 3103 
Q 1916 3103 1684 2976 
Q 1453 2850 1281 2606 
Q 1100 2350 995 2006 
Q 891 1663 891 1338 
z
" transform="scale(0.015625)"/>
       <path id="DejaVuSans-30" d="M 2034 4250 
Q 1547 4250 1301 3770 
Q 1056 3291 1056 2328 
Q 1056 1369 1301 889 
Q 1547 409 2034 409 
Q 2525 409 2770 889 
Q 3016 1369 3016 2328 
Q 3016 3291 2770 3770 
Q 2525 4250 2034 4250 
z
M 2034 4750 
Q 2819 4750 3233 4129 
Q 3647 3509 3647 2328 
Q 3647 1150 3233 529 
Q 2819 -91 2034 -91 
Q 1250 -91 836 529 
Q 422 1150 422 2328 
Q 422 3509 836 4129 
Q 1250 4750 2034 4750 
z
" transform="scale(0.015625)"/>
      </defs>
      <use xlink:href="#DejaVuSans-Oblique-71"/>
      <use xlink:href="#DejaVuSans-30" transform="translate(63.476562 -16.40625) scale(0.7)"/>
     </g>
    </g>
   </g>
   <g id="text_2">
    <g clip-path="url(#pd5c57bfabc)">
     <!-- ${q}_{1}$ -->
     <g transform="translate(60.617422 95.088175) scale(0.1625 -0.1625)">
      <defs>
       <path id="DejaVuSans-31" d="M 794 531 
L 1825 531 
L 1825 4091 
L 703 3866 
L 703 4441 
L 1819 4666 
L 2450 4666 
L 2450 531 
L 3481 531 
L 3481 0 
L 794 0 
L 794 531 
z
" transform="scale(0.015625)"/>
      </defs>
      <use xlink:href="#DejaVuSans-Oblique-71"/>
      <use xlink:href="#DejaVuSans-31" transform="translate(63.476562 -16.40625) scale(0.7)"/>
     </g>
    </g>
   </g>
   <g id="text_3">
    <g clip-path="url(#pd5c57bfabc)">
     <!-- ${q}_{2}$ -->
     <g transform="translate(60.617422 141.442175) scale(0.1625 -0.1625)">
      <defs>
       <path id="DejaVuSans-32" d="M 1228 531 
L 3431 531 
L 3431 0 
L 469 0 
L 469 531 
Q 828 903 1448 1529 
Q 2069 2156 2228 2338 
Q 2531 2678 2651 2914 
Q 2772 3150 2772 3378 
Q 2772 3750 2511 3984 
Q 2250 4219 1831 4219 
Q 1534 4219 1204 4116 
Q 875 4013 500 3803 
L 500 4441 
Q 881 4594 1212 4672 
Q 1544 4750 1819 4750 
Q 2544 4750 2975 4387 
Q 3406 4025 3406 3419 
Q 3406 3131 3298 2873 
Q 3191 2616 2906 2266 
Q 2828 2175 2409 1742 
Q 1991 1309 1228 531 
z
" transform="scale(0.015625)"/>
      </defs>
      <use xlink:href="#DejaVuSans-Oblique-71"/>
      <use xlink:href="#DejaVuSans-32" transform="translate(63.476562 -16.40625) scale(0.7)"/>
     </g>
    </g>
   </g>
   <g id="text_4">
    <g clip-path="url(#pd5c57bfabc)">
     <!-- ${q}_{3}$ -->
     <g transform="translate(60.617422 187.796174) scale(0.1625 -0.1625)">
      <defs>
       <path id="DejaVuSans-33" d="M 2597 2516 
Q 3050 2419 3304 2112 
Q 3559 1806 3559 1356 
Q 3559 666 3084 287 
Q 2609 -91 1734 -91 
Q 1441 -91 1130 -33 
Q 819 25 488 141 
L 488 750 
Q 750 597 1062 519 
Q 1375 441 1716 441 
Q 2309 441 2620 675 
Q 2931 909 2931 1356 
Q 2931 1769 2642 2001 
Q 2353 2234 1838 2234 
L 1294 2234 
L 1294 2753 
L 1863 2753 
Q 2328 2753 2575 2939 
Q 2822 3125 2822 3475 
Q 2822 3834 2567 4026 
Q 2313 4219 1838 4219 
Q 1578 4219 1281 4162 
Q 984 4106 628 3988 
L 628 4550 
Q 988 4650 1302 4700 
Q 1616 4750 1894 4750 
Q 2613 4750 3031 4423 
Q 3450 4097 3450 3541 
Q 3450 3153 3228 2886 
Q 3006 2619 2597 2516 
z
" transform="scale(0.015625)"/>
      </defs>
      <use xlink:href="#DejaVuSans-Oblique-71"/>
      <use xlink:href="#DejaVuSans-33" transform="translate(63.476562 -16.40625) scale(0.7)"/>
     </g>
    </g>
   </g>
   <g id="text_5">
    <g clip-path="url(#pd5c57bfabc)">
     <!-- 4 -->
     <g transform="translate(92.561122 222.900922) scale(0.104 -0.104)">
      <defs>
       <path id="DejaVuSans-34" d="M 2419 4116 
L 825 1625 
L 2419 1625 
L 2419 4116 
z
M 2253 4666 
L 3047 4666 
L 3047 1625 
L 3713 1625 
L 3713 1100 
L 3047 1100 
L 3047 0 
L 2419 0 
L 2419 1100 
L 313 1100 
L 313 1709 
L 2253 4666 
z
" transform="scale(0.015625)"/>
      </defs>
      <use xlink:href="#DejaVuSans-34"/>
     </g>
    </g>
   </g>
   <g id="text_6">
    <g clip-path="url(#pd5c57bfabc)">
     <!-- meas -->
     <g transform="translate(34.404141 234.183181) scale(0.1625 -0.1625)">
      <defs>
       <path id="DejaVuSans-6d" d="M 3328 2828 
Q 3544 3216 3844 3400 
Q 4144 3584 4550 3584 
Q 5097 3584 5394 3201 
Q 5691 2819 5691 2113 
L 5691 0 
L 5113 0 
L 5113 2094 
Q 5113 2597 4934 2840 
Q 4756 3084 4391 3084 
Q 3944 3084 3684 2787 
Q 3425 2491 3425 1978 
L 3425 0 
L 2847 0 
L 2847 2094 
Q 2847 2600 2669 2842 
Q 2491 3084 2119 3084 
Q 1678 3084 1418 2786 
Q 1159 2488 1159 1978 
L 1159 0 
L 581 0 
L 581 3500 
L 1159 3500 
L 1159 2956 
Q 1356 3278 1631 3431 
Q 1906 3584 2284 3584 
Q 2666 3584 2933 3390 
Q 3200 3197 3328 2828 
z
" transform="scale(0.015625)"/>
       <path id="DejaVuSans-65" d="M 3597 1894 
L 3597 1613 
L 953 1613 
Q 991 1019 1311 708 
Q 1631 397 2203 397 
Q 2534 397 2845 478 
Q 3156 559 3463 722 
L 3463 178 
Q 3153 47 2828 -22 
Q 2503 -91 2169 -91 
Q 1331 -91 842 396 
Q 353 884 353 1716 
Q 353 2575 817 3079 
Q 1281 3584 2069 3584 
Q 2775 3584 3186 3129 
Q 3597 2675 3597 1894 
z
M 3022 2063 
Q 3016 2534 2758 2815 
Q 2500 3097 2075 3097 
Q 1594 3097 1305 2825 
Q 1016 2553 972 2059 
L 3022 2063 
z
" transform="scale(0.015625)"/>
       <path id="DejaVuSans-61" d="M 2194 1759 
Q 1497 1759 1228 1600 
Q 959 1441 959 1056 
Q 959 750 1161 570 
Q 1363 391 1709 391 
Q 2188 391 2477 730 
Q 2766 1069 2766 1631 
L 2766 1759 
L 2194 1759 
z
M 3341 1997 
L 3341 0 
L 2766 0 
L 2766 531 
Q 2569 213 2275 61 
Q 1981 -91 1556 -91 
Q 1019 -91 701 211 
Q 384 513 384 1019 
Q 384 1609 779 1909 
Q 1175 2209 1959 2209 
L 2766 2209 
L 2766 2266 
Q 2766 2663 2505 2880 
Q 2244 3097 1772 3097 
Q 1472 3097 1187 3025 
Q 903 2953 641 2809 
L 641 3341 
Q 956 3463 1253 3523 
Q 1550 3584 1831 3584 
Q 2591 3584 2966 3190 
Q 3341 2797 3341 1997 
z
" transform="scale(0.015625)"/>
       <path id="DejaVuSans-73" d="M 2834 3397 
L 2834 2853 
Q 2591 2978 2328 3040 
Q 2066 3103 1784 3103 
Q 1356 3103 1142 2972 
Q 928 2841 928 2578 
Q 928 2378 1081 2264 
Q 1234 2150 1697 2047 
L 1894 2003 
Q 2506 1872 2764 1633 
Q 3022 1394 3022 966 
Q 3022 478 2636 193 
Q 2250 -91 1575 -91 
Q 1294 -91 989 -36 
Q 684 19 347 128 
L 347 722 
Q 666 556 975 473 
Q 1284 391 1588 391 
Q 1994 391 2212 530 
Q 2431 669 2431 922 
Q 2431 1156 2273 1281 
Q 2116 1406 1581 1522 
L 1381 1569 
Q 847 1681 609 1914 
Q 372 2147 372 2553 
Q 372 3047 722 3315 
Q 1072 3584 1716 3584 
Q 2034 3584 2315 3537 
Q 2597 3491 2834 3397 
z
" transform="scale(0.015625)"/>
      </defs>
      <use xlink:href="#DejaVuSans-6d"/>
      <use xlink:href="#DejaVuSans-65" x="97.412109"/>
      <use xlink:href="#DejaVuSans-61" x="158.935547"/>
      <use xlink:href="#DejaVuSans-73" x="220.214844"/>
     </g>
    </g>
   </g>
   <g id="text_7">
    <g clip-path="url(#pd5c57bfabc)">
     <!-- H -->
     <g transform="translate(108.068678 47.870387) scale(0.13 -0.13)">
      <defs>
       <path id="DejaVuSans-48" d="M 628 4666 
L 1259 4666 
L 1259 2753 
L 3553 2753 
L 3553 4666 
L 4184 4666 
L 4184 0 
L 3553 0 
L 3553 2222 
L 1259 2222 
L 1259 0 
L 628 0 
L 628 4666 
z
" transform="scale(0.015625)"/>
      </defs>
      <use xlink:href="#DejaVuSans-48"/>
     </g>
    </g>
   </g>
   <g id="text_8">
    <g clip-path="url(#pd5c57bfabc)">
     <!-- H -->
     <g transform="translate(108.068678 94.224386) scale(0.13 -0.13)">
      <use xlink:href="#DejaVuSans-48"/>
     </g>
    </g>
   </g>
   <g id="text_9">
    <g clip-path="url(#pd5c57bfabc)">
     <!-- H -->
     <g transform="translate(108.068678 140.578386) scale(0.13 -0.13)">
      <use xlink:href="#DejaVuSans-48"/>
     </g>
    </g>
   </g>
   <g id="text_10">
    <g clip-path="url(#pd5c57bfabc)">
     <!-- X -->
     <g style="fill: #ffffff" transform="translate(108.504381 186.932385) scale(0.13 -0.13)">
      <defs>
       <path id="DejaVuSans-58" d="M 403 4666 
L 1081 4666 
L 2241 2931 
L 3406 4666 
L 4084 4666 
L 2584 2425 
L 4184 0 
L 3506 0 
L 2194 1984 
L 872 0 
L 191 0 
L 1856 2491 
L 403 4666 
z
" transform="scale(0.015625)"/>
      </defs>
      <use xlink:href="#DejaVuSans-58"/>
     </g>
    </g>
   </g>
   <g id="text_11">
    <g clip-path="url(#pd5c57bfabc)">
     <!-- $U^1$ -->
     <g style="fill: #ffffff" transform="translate(150.990881 186.932385) scale(0.13 -0.13)">
      <defs>
       <path id="DejaVuSans-Oblique-55" d="M 991 4666 
L 1625 4666 
L 1075 1831 
Q 1041 1641 1027 1517 
Q 1013 1394 1013 1300 
Q 1013 869 1253 645 
Q 1494 422 1959 422 
Q 2563 422 2898 753 
Q 3234 1084 3378 1831 
L 3928 4666 
L 4563 4666 
L 4000 1753 
Q 3816 809 3300 359 
Q 2784 -91 1888 -91 
Q 1188 -91 780 261 
Q 372 613 372 1216 
Q 372 1325 387 1461 
Q 403 1597 434 1753 
L 991 4666 
z
" transform="scale(0.015625)"/>
      </defs>
      <use xlink:href="#DejaVuSans-Oblique-55" transform="translate(0 0.684375)"/>
      <use xlink:href="#DejaVuSans-31" transform="translate(80.21013 38.965625) scale(0.7)"/>
     </g>
    </g>
   </g>
   <g id="text_12">
    <g clip-path="url(#pd5c57bfabc)">
     <!-- $U^2$ -->
     <g style="fill: #ffffff" transform="translate(197.34488 186.932385) scale(0.13 -0.13)">
      <use xlink:href="#DejaVuSans-Oblique-55" transform="translate(0 0.765625)"/>
      <use xlink:href="#DejaVuSans-32" transform="translate(80.21013 39.046875) scale(0.7)"/>
     </g>
    </g>
   </g>
   <g id="text_13">
    <g clip-path="url(#pd5c57bfabc)">
     <!-- $U^{2^n}$ -->
     <g style="fill: #ffffff" transform="translate(241.48888 186.932385) scale(0.13 -0.13)">
      <defs>
       <path id="DejaVuSans-Oblique-6e" d="M 3566 2113 
L 3156 0 
L 2578 0 
L 2988 2091 
Q 3016 2238 3031 2350 
Q 3047 2463 3047 2528 
Q 3047 2791 2881 2937 
Q 2716 3084 2419 3084 
Q 1956 3084 1622 2776 
Q 1288 2469 1184 1941 
L 800 0 
L 225 0 
L 903 3500 
L 1478 3500 
L 1363 2950 
Q 1603 3253 1940 3418 
Q 2278 3584 2650 3584 
Q 3113 3584 3367 3334 
Q 3622 3084 3622 2631 
Q 3622 2519 3608 2391 
Q 3594 2263 3566 2113 
z
" transform="scale(0.015625)"/>
      </defs>
      <use xlink:href="#DejaVuSans-Oblique-55" transform="translate(0 0.481875)"/>
      <use xlink:href="#DejaVuSans-32" transform="translate(80.21013 38.763125) scale(0.7)"/>
      <use xlink:href="#DejaVuSans-Oblique-6e" transform="translate(125.416185 65.56) scale(0.49)"/>
     </g>
    </g>
   </g>
   <g id="text_14">
    <g clip-path="url(#pd5c57bfabc)">
     <!-- 0 -->
     <g style="fill: #ffffff" transform="translate(281.010988 47.870387) scale(0.13 -0.13)">
      <use xlink:href="#DejaVuSans-30"/>
     </g>
    </g>
   </g>
   <g id="text_15">
    <g clip-path="url(#pd5c57bfabc)">
     <!-- 1 -->
     <g style="fill: #ffffff" transform="translate(281.010988 94.224386) scale(0.13 -0.13)">
      <use xlink:href="#DejaVuSans-31"/>
     </g>
    </g>
   </g>
   <g id="text_16">
    <g clip-path="url(#pd5c57bfabc)">
     <!-- 2 -->
     <g style="fill: #ffffff" transform="translate(281.010988 140.578386) scale(0.13 -0.13)">
      <use xlink:href="#DejaVuSans-32"/>
     </g>
    </g>
   </g>
   <g id="text_17">
    <g clip-path="url(#pd5c57bfabc)">
     <!-- IQFT -->
     <g style="fill: #ffffff" transform="translate(288.842756 94.224386) scale(0.13 -0.13)">
      <defs>
       <path id="DejaVuSans-49" d="M 628 4666 
L 1259 4666 
L 1259 0 
L 628 0 
L 628 4666 
z
" transform="scale(0.015625)"/>
       <path id="DejaVuSans-51" d="M 2522 4238 
Q 1834 4238 1429 3725 
Q 1025 3213 1025 2328 
Q 1025 1447 1429 934 
Q 1834 422 2522 422 
Q 3209 422 3611 934 
Q 4013 1447 4013 2328 
Q 4013 3213 3611 3725 
Q 3209 4238 2522 4238 
z
M 3406 84 
L 4238 -825 
L 3475 -825 
L 2784 -78 
Q 2681 -84 2626 -87 
Q 2572 -91 2522 -91 
Q 1538 -91 948 567 
Q 359 1225 359 2328 
Q 359 3434 948 4092 
Q 1538 4750 2522 4750 
Q 3503 4750 4090 4092 
Q 4678 3434 4678 2328 
Q 4678 1516 4351 937 
Q 4025 359 3406 84 
z
" transform="scale(0.015625)"/>
       <path id="DejaVuSans-46" d="M 628 4666 
L 3309 4666 
L 3309 4134 
L 1259 4134 
L 1259 2759 
L 3109 2759 
L 3109 2228 
L 1259 2228 
L 1259 0 
L 628 0 
L 628 4666 
z
" transform="scale(0.015625)"/>
       <path id="DejaVuSans-54" d="M -19 4666 
L 3928 4666 
L 3928 4134 
L 2272 4134 
L 2272 0 
L 1638 0 
L 1638 4134 
L -19 4134 
L -19 4666 
z
" transform="scale(0.015625)"/>
      </defs>
      <use xlink:href="#DejaVuSans-49"/>
      <use xlink:href="#DejaVuSans-51" x="29.492188"/>
      <use xlink:href="#DejaVuSans-46" x="108.203125"/>
      <use xlink:href="#DejaVuSans-54" x="163.972656"/>
     </g>
    </g>
   </g>
   <g id="text_18">
    <g clip-path="url(#pd5c57bfabc)">
     <!-- 0 -->
     <g transform="translate(356.315378 222.900922) scale(0.104 -0.104)">
      <use xlink:href="#DejaVuSans-30"/>
     </g>
    </g>
   </g>
   <g id="text_19">
    <g clip-path="url(#pd5c57bfabc)">
     <!-- 1 -->
     <g transform="translate(402.669378 222.900922) scale(0.104 -0.104)">
      <use xlink:href="#DejaVuSans-31"/>
     </g>
    </g>
   </g>
   <g id="text_20">
    <g clip-path="url(#pd5c57bfabc)">
     <!-- 2 -->
     <g transform="translate(449.023377 222.900922) scale(0.104 -0.104)">
      <use xlink:href="#DejaVuSans-32"/>
     </g>
    </g>
   </g>
   <g id="text_21">
    <g clip-path="url(#pd5c57bfabc)">
     <!-- 3 -->
     <g transform="translate(495.377376 222.900922) scale(0.104 -0.104)">
      <use xlink:href="#DejaVuSans-33"/>
     </g>
    </g>
   </g>
  </g>
 </g>
 <defs>
  <clipPath id="pd5c57bfabc">
   <rect x="7.2" y="7.2" width="507.182516" height="250.311597"/>
  </clipPath>
 </defs>
</svg>
